<svg xmlns="http://www.w3.org/2000/svg" width="375" viewBox="0 0 375 375" height="375" version="1.0"><defs><clipPath id="a"><path d="M 242 37.5 L 265 37.5 L 265 58 L 242 58 Z M 242 37.5"/></clipPath><clipPath id="b"><path d="M 53.417969 40 L 296 40 L 296 309 L 53.417969 309 Z M 53.417969 40"/></clipPath></defs><path fill="#7D9B76" d="M 190.296875 85.082031 C 190.296875 85.082031 190.296875 85.082031 190.300781 85.082031 C 190.300781 85.082031 190.300781 85.082031 190.304688 85.082031 L 190.316406 85.082031 C 190.316406 85.082031 190.316406 85.082031 190.320312 85.082031 C 190.320312 85.082031 190.332031 85.082031 190.351562 85.082031 L 190.355469 85.082031 C 190.359375 85.085938 190.363281 85.085938 190.367188 85.085938 L 190.378906 85.082031 L 190.378906 85.085938 L 190.382812 85.082031 L 190.382812 85.085938 L 190.382812 85.082031 L 190.382812 85.085938 L 190.386719 85.085938 C 190.390625 85.085938 190.394531 85.085938 190.394531 85.085938 L 190.398438 85.085938 L 190.40625 85.082031 Z M 190.296875 85.082031"/><path fill="#7D9B76" d="M 202.511719 166.738281 L 202.46875 166.757812 L 202.425781 166.78125 L 202.429688 166.78125 L 202.519531 166.84375 L 202.609375 166.902344 L 202.691406 166.949219 C 202.710938 166.910156 202.726562 166.882812 202.738281 166.859375 L 202.742188 166.859375 L 202.738281 166.859375 C 202.742188 166.859375 202.742188 166.859375 202.742188 166.859375 L 202.738281 166.855469 L 202.742188 166.859375 C 202.734375 166.855469 202.730469 166.851562 202.722656 166.847656 C 202.683594 166.832031 202.652344 166.8125 202.625 166.800781 C 202.574219 166.773438 202.539062 166.75 202.515625 166.738281 L 202.511719 166.738281"/><path fill="#7D9B76" d="M 139.914062 157.523438 L 139.824219 157.527344 C 139.515625 157.539062 139.222656 157.628906 138.945312 157.792969 C 138.304688 158.214844 137.511719 158.761719 136.566406 159.429688 L 135.175781 160.457031 C 132.410156 163.011719 130.804688 164.417969 130.363281 164.679688 C 129.621094 165.175781 128.230469 166.039062 126.191406 167.265625 C 126.039062 167.355469 125.910156 167.460938 125.792969 167.582031 C 125.578125 167.75 125.410156 168.109375 125.289062 168.667969 C 125.25 168.992188 125.296875 169.3125 125.429688 169.628906 C 125.734375 170.34375 126.339844 170.726562 127.25 170.769531 C 127.527344 170.757812 127.800781 170.683594 128.0625 170.542969 C 130.480469 169.085938 131.976562 168.15625 132.550781 167.75 C 133.246094 167.292969 134.898438 165.851562 137.515625 163.421875 C 138.601562 162.601562 139.753906 161.789062 140.96875 160.980469 C 141.113281 160.882812 141.238281 160.769531 141.347656 160.644531 C 141.554688 160.46875 141.703125 160.097656 141.800781 159.539062 C 141.820312 159.210938 141.757812 158.890625 141.609375 158.582031 C 141.257812 157.910156 140.691406 157.558594 139.914062 157.523438"/><path fill="#7D9B76" d="M 129.21875 151.347656 L 129.117188 151.351562 C 128.773438 151.367188 128.449219 151.480469 128.148438 151.683594 L 126.175781 153.21875 C 124.222656 154.4375 122.554688 155.578125 121.171875 156.648438 C 116.1875 160.683594 112.253906 164.140625 109.367188 167.019531 C 109.363281 167.101562 108.421875 167.671875 106.550781 168.730469 C 105.949219 169.457031 105.78125 170.128906 106.050781 170.75 C 106.324219 171.523438 106.945312 171.945312 107.90625 172.003906 C 108.226562 171.980469 108.488281 171.914062 108.699219 171.796875 C 110.265625 170.960938 111.230469 170.386719 111.585938 170.070312 C 115.007812 166.765625 118.816406 163.40625 123.015625 160 C 124.765625 158.640625 126.558594 157.402344 128.386719 156.28125 L 130.574219 154.554688 C 131.078125 154.105469 131.207031 153.425781 130.964844 152.515625 C 130.636719 151.785156 130.054688 151.394531 129.21875 151.347656"/><path fill="#7D9B76" d="M 201.792969 138.65625 L 201.582031 138.671875 C 201.019531 138.742188 200.46875 139.101562 199.933594 139.75 C 199.046875 141.597656 198.183594 143.078125 197.351562 144.195312 C 195.703125 146.285156 194.226562 147.839844 192.917969 148.863281 C 192.488281 149.210938 191.320312 149.921875 189.421875 150.988281 C 185.589844 153.105469 182.058594 155.003906 178.835938 156.683594 C 178.242188 157.019531 177.582031 157.441406 176.855469 157.941406 C 176.488281 158.195312 176.144531 158.480469 175.824219 158.800781 L 169.675781 165.8125 C 169.171875 166.546875 169.042969 167.519531 169.285156 168.726562 C 169.519531 169.734375 170.148438 170.277344 171.175781 170.359375 C 170.585938 170.835938 170.25 171.289062 170.171875 171.710938 C 170.480469 171.652344 170.800781 171.660156 171.132812 171.730469 C 171.492188 170.773438 171.890625 169.859375 172.316406 168.984375 C 172.46875 168.75 172.714844 168.527344 173.058594 168.324219 L 172.925781 167.75 L 178.667969 161.300781 C 179.003906 161.015625 179.644531 160.589844 180.59375 160.027344 C 186.523438 156.910156 190.707031 154.625 193.144531 153.175781 C 194.335938 152.578125 195.617188 151.613281 196.980469 150.285156 L 196.195312 151.339844 C 194.660156 152.882812 192.902344 154.921875 190.921875 157.449219 L 188.933594 159.320312 C 187.40625 161.332031 186.617188 162.339844 186.5625 162.34375 C 186.1875 162.835938 184.703125 164.082031 182.117188 166.085938 L 180.261719 168.046875 C 181.449219 170.144531 181.609375 171.550781 180.753906 172.261719 C 181.214844 172.101562 181.808594 171.722656 182.539062 171.121094 L 184.628906 168.910156 C 187.132812 166.972656 188.671875 165.667969 189.242188 165.003906 C 189.792969 164.398438 190.628906 163.347656 191.746094 161.847656 L 193.71875 159.992188 C 195.757812 157.386719 197.503906 155.359375 198.960938 153.917969 C 199.503906 153.289062 200.105469 152.449219 200.757812 151.398438 C 201.96875 149.421875 203.082031 145.972656 204.09375 141.054688 C 204.015625 139.722656 203.25 138.925781 201.792969 138.65625"/><path fill="#7D9B76" d="M 91.378906 164.933594 L 91.183594 164.945312 C 90.785156 164.988281 90.4375 165.140625 90.136719 165.398438 C 89.816406 165.726562 89.636719 165.996094 89.589844 166.214844 C 89.382812 166.804688 89.035156 167.945312 88.554688 169.640625 C 87.625 173.242188 87.101562 175.207031 86.992188 175.539062 C 86.957031 175.652344 86.886719 175.996094 86.78125 176.578125 C 86.667969 177.28125 86.609375 178.011719 86.609375 178.765625 L 86.628906 179.019531 C 86.652344 179.1875 86.695312 179.347656 86.757812 179.5 C 86.824219 179.757812 87.085938 180.058594 87.546875 180.394531 C 87.828125 180.5625 88.144531 180.648438 88.496094 180.652344 C 88.847656 180.648438 89.167969 180.5625 89.449219 180.394531 C 89.910156 180.058594 90.171875 179.757812 90.238281 179.5 C 90.300781 179.347656 90.34375 179.1875 90.367188 179.019531 C 90.367188 178.140625 90.457031 177.3125 90.632812 176.539062 C 90.964844 175.367188 91.484375 173.40625 92.1875 170.664062 C 92.480469 169.609375 92.828125 168.449219 93.230469 167.183594 C 93.273438 167.097656 93.273438 166.851562 93.226562 166.445312 C 93.160156 166.125 93.019531 165.839844 92.804688 165.585938 C 92.503906 165.203125 92.027344 164.984375 91.378906 164.933594"/><path fill="#7D9B76" d="M 124.433594 188.230469 L 124.542969 188.273438 L 124.648438 188.316406 C 124.648438 188.316406 124.644531 188.316406 124.644531 188.316406 C 124.652344 188.328125 124.671875 188.359375 124.707031 188.417969 C 124.722656 188.40625 124.742188 188.386719 124.765625 188.363281 L 124.882812 188.410156 L 124.746094 188.476562 L 124.710938 188.417969 C 124.707031 188.417969 124.703125 188.421875 124.699219 188.425781 L 124.667969 188.453125 C 124.605469 188.386719 124.527344 188.3125 124.429688 188.230469 L 124.433594 188.230469"/><path fill="#7D9B76" d="M 129.726562 187.582031 L 130.214844 188.386719 L 130.707031 189.195312 L 129.722656 187.585938 L 129.726562 187.582031"/><path fill="#7D9B76" d="M 195.457031 170.324219 L 195.402344 170.324219 C 193.808594 170.511719 192.527344 171.128906 191.5625 172.175781 C 188.148438 175.882812 186.261719 178.050781 185.902344 178.679688 C 184.570312 179.601562 183.59375 180.378906 182.972656 181.011719 C 182.285156 181.847656 181.675781 182.792969 181.144531 183.84375 L 180.335938 184.867188 C 180.226562 185.054688 180.148438 185.292969 180.105469 185.589844 L 180.101562 185.679688 L 180.710938 186 L 180.949219 186.199219 L 180.75 186.03125 L 181.878906 186.855469 L 182.488281 187.152344 L 182.839844 187.480469 L 183.128906 187.296875 L 184.292969 185.9375 C 184.722656 185.09375 185.21875 184.277344 185.792969 183.488281 C 186.144531 183.175781 187.074219 182.46875 188.585938 181.371094 C 192.1875 176.976562 194.121094 174.769531 194.386719 174.753906 L 194.347656 183.570312 L 192.511719 187.640625 L 190.65625 193.429688 C 190.4375 194.09375 190.410156 196.117188 190.570312 199.496094 L 190.375 200.308594 L 189.449219 202.242188 L 191.144531 206.257812 L 191.265625 206.90625 C 192.246094 205.132812 193.148438 203.316406 193.96875 201.464844 C 194.203125 200.574219 194.324219 200.03125 194.332031 199.84375 C 194.1875 197.246094 194.183594 195.394531 194.328125 194.292969 L 196.039062 188.992188 L 197.949219 184.761719 L 198.113281 183.886719 L 198.160156 183.113281 L 198.167969 173.515625 C 198.164062 173.328125 198.121094 173.027344 198.042969 172.617188 C 197.832031 171.992188 197.542969 171.496094 197.179688 171.125 C 196.488281 170.5625 195.914062 170.296875 195.457031 170.324219"/><path fill="#7D9B76" d="M 89.167969 213.492188 L 89.171875 213.492188 C 89.171875 213.496094 89.171875 213.496094 89.171875 213.496094 L 89.164062 213.496094 L 89.160156 213.492188 L 89.167969 213.492188"/><path fill="#7D9B76" d="M 157.191406 209.8125 L 157.089844 209.816406 C 156.652344 209.859375 156.304688 209.988281 156.046875 210.199219 C 154.542969 211.339844 153.589844 212.164062 153.183594 212.667969 C 152.949219 213.007812 152.832031 213.378906 152.835938 213.773438 C 152.59375 213.964844 152.40625 214.292969 152.277344 214.753906 C 152.203125 215.070312 152.230469 215.75 152.355469 216.800781 C 152.414062 217.1875 152.507812 217.574219 152.640625 217.96875 C 153.03125 218.953125 153.355469 219.746094 153.621094 220.355469 C 154.070312 221.421875 154.515625 222.246094 154.953125 222.824219 C 155.296875 223.273438 155.558594 223.578125 155.734375 223.738281 C 157.292969 225.089844 158.214844 225.910156 158.5 226.207031 C 158.894531 226.476562 159.296875 226.597656 159.707031 226.574219 C 160.070312 226.542969 160.367188 226.453125 160.597656 226.304688 C 161 226.050781 161.269531 225.714844 161.40625 225.292969 L 162.972656 224.507812 C 163.128906 224.429688 163.269531 224.332031 163.390625 224.222656 C 163.898438 223.734375 164.09375 223.144531 163.980469 222.453125 C 163.746094 221.566406 163.1875 221.0625 162.300781 220.9375 C 161.984375 220.914062 161.691406 220.957031 161.421875 221.066406 L 159.503906 222.019531 L 158.390625 221.058594 C 158.21875 220.894531 158.019531 220.640625 157.792969 220.296875 C 158.179688 220.027344 158.671875 219.734375 159.273438 219.421875 C 160.617188 218.894531 161.261719 218.605469 161.207031 218.5625 C 161.753906 218.125 162 217.554688 161.949219 216.855469 C 161.902344 216.378906 161.679688 215.957031 161.269531 215.597656 C 160.804688 215.277344 160.40625 215.132812 160.070312 215.164062 C 160.007812 215.050781 159.300781 215.285156 157.949219 215.878906 C 157.421875 216.117188 156.851562 216.425781 156.238281 216.804688 C 156.085938 216.40625 156.007812 215.855469 156.007812 215.148438 C 156.179688 214.914062 157.019531 214.207031 158.53125 213.035156 C 158.753906 212.867188 158.929688 212.507812 159.0625 211.953125 C 159.160156 211.496094 159.007812 210.988281 158.597656 210.4375 C 158.289062 210.066406 157.820312 209.855469 157.191406 209.8125"/><path fill="#7D9B76" d="M 178.992188 230.398438 L 178.902344 230.402344 C 178.257812 230.460938 177.765625 230.734375 177.433594 231.222656 C 177.054688 231.808594 177.007812 232.429688 177.28125 233.085938 C 177.671875 233.738281 178.144531 234.394531 178.703125 235.050781 L 179.058594 235.433594 L 180.539062 236.914062 C 180.925781 237.285156 181.371094 237.46875 181.871094 237.46875 C 182.46875 237.46875 182.96875 237.21875 183.375 236.722656 C 183.785156 236.140625 183.867188 235.523438 183.621094 234.871094 C 183.433594 234.503906 183.292969 234.296875 183.207031 234.246094 L 181.59375 232.621094 C 181.148438 232.085938 180.777344 231.589844 180.484375 231.128906 C 180.417969 231.042969 180.34375 230.964844 180.265625 230.894531 C 180.109375 230.75 179.933594 230.636719 179.742188 230.554688 C 179.402344 230.433594 179.152344 230.382812 178.992188 230.398438"/><path fill="#7D9B76" d="M 136.625 236.988281 L 136.550781 236.988281 C 136.09375 237.007812 135.6875 237.175781 135.335938 237.496094 C 133.769531 237.347656 131.1875 237.59375 127.589844 238.238281 C 126.226562 238.4375 124.9375 239.023438 123.722656 239.992188 C 122.957031 239.773438 122.335938 239.875 121.855469 240.296875 C 121.539062 240.597656 121.351562 240.851562 121.296875 241.054688 C 120.972656 241.824219 120.664062 242.769531 120.367188 243.886719 C 120.097656 244.964844 119.949219 246.453125 119.929688 248.347656 C 120.039062 249.496094 120.667969 250.125 121.820312 250.234375 C 122.171875 250.230469 122.488281 250.140625 122.769531 249.972656 C 123.230469 249.636719 123.492188 249.335938 123.554688 249.078125 C 123.621094 248.925781 123.664062 248.765625 123.6875 248.597656 C 123.6875 247.46875 123.769531 246.359375 123.933594 245.269531 C 124.070312 244.59375 124.238281 243.976562 124.441406 243.417969 C 125.101562 243.535156 125.695312 243.339844 126.214844 242.832031 C 126.425781 243.328125 126.921875 244.167969 127.699219 245.355469 C 128.546875 244.726562 129.667969 244.140625 131.066406 243.605469 C 130.605469 242.917969 130.203125 242.28125 129.863281 241.699219 L 132.367188 241.351562 C 134.105469 241.214844 135.210938 241.21875 135.675781 241.359375 L 136.179688 242.621094 L 136.390625 242.945312 C 136.578125 243.226562 136.941406 243.449219 137.488281 243.609375 C 138.15625 243.730469 138.742188 243.539062 139.242188 243.039062 C 139.492188 243.164062 139.820312 243.433594 140.234375 243.855469 C 140.476562 244.019531 140.734375 244.121094 141.019531 244.164062 C 141.621094 244.238281 142.148438 244.074219 142.597656 243.664062 C 143.367188 242.828125 143.378906 241.925781 142.632812 240.949219 C 142.191406 240.367188 140.8125 239.519531 138.496094 238.40625 C 138.285156 237.863281 137.984375 237.480469 137.597656 237.257812 C 137.296875 237.078125 136.972656 236.988281 136.625 236.988281"/><path fill="#7D9B76" d="M 191.746094 241.515625 L 191.628906 241.519531 C 191.234375 241.542969 190.871094 241.683594 190.546875 241.945312 C 189.769531 242.667969 189.175781 243.292969 188.761719 243.816406 C 188.171875 244.484375 187.335938 245.925781 186.257812 248.144531 L 186.191406 248.386719 C 186.160156 248.546875 186.148438 248.710938 186.160156 248.875 C 186.179688 249.203125 186.28125 249.503906 186.457031 249.785156 C 186.910156 250.375 187.4375 250.660156 188.042969 250.644531 C 188.644531 250.636719 189.144531 250.390625 189.535156 249.910156 C 189.609375 249.816406 189.671875 249.714844 189.726562 249.605469 C 189.992188 249.070312 190.335938 248.414062 190.761719 247.636719 C 190.941406 247.300781 191.175781 246.917969 191.46875 246.488281 C 191.746094 246.078125 192.324219 245.449219 193.210938 244.59375 C 193.320312 244.460938 193.40625 244.320312 193.472656 244.167969 C 193.738281 243.527344 193.675781 242.90625 193.285156 242.308594 C 192.882812 241.785156 192.371094 241.523438 191.746094 241.515625"/><path fill="#7D9B76" d="M 61.945312 268.582031 L 61.941406 268.585938 C 62.011719 268.765625 62.089844 268.953125 62.179688 269.148438 C 62.195312 269.144531 62.207031 269.140625 62.222656 269.136719 C 62.132812 268.964844 62.042969 268.78125 61.945312 268.582031"/><path fill="#7D9B76" d="M 138.328125 275.777344 L 138.332031 275.78125 L 138.339844 275.785156 C 138.339844 275.785156 138.34375 275.789062 138.34375 275.789062 L 138.351562 275.792969 C 138.351562 275.796875 138.347656 275.796875 138.347656 275.796875 L 138.332031 275.785156 L 138.328125 275.78125 C 138.328125 275.78125 138.324219 275.777344 138.320312 275.777344 L 138.328125 275.777344"/><path fill="#7D9B76" d="M 173.5625 288.117188 L 173.601562 288.117188 C 173.605469 288.117188 173.609375 288.117188 173.609375 288.117188 L 173.601562 288.121094 L 173.519531 288.121094 L 173.519531 288.125 C 173.527344 288.121094 173.53125 288.121094 173.53125 288.121094 L 173.542969 288.117188 C 173.546875 288.117188 173.546875 288.117188 173.550781 288.117188 L 173.5625 288.117188"/><g clip-path="url(#a)"><path fill="#7D9B76" d="M 261.304688 37.613281 L 260.910156 37.632812 C 259.933594 37.671875 258.550781 38.21875 256.753906 39.273438 C 256.363281 39.503906 255.589844 40.238281 254.4375 41.480469 C 253.191406 42.09375 251.050781 43.550781 248.007812 45.855469 C 247.566406 46.234375 247.136719 46.660156 246.714844 47.136719 C 244.847656 49.519531 243.710938 50.882812 243.308594 51.21875 C 242.957031 51.796875 242.835938 52.285156 242.945312 52.679688 C 243.085938 53.46875 243.59375 53.984375 244.464844 54.222656 C 244.101562 54.695312 244.066406 55.324219 244.363281 56.109375 C 244.828125 56.847656 245.429688 57.1875 246.171875 57.132812 C 246.429688 57.113281 246.675781 57.042969 246.910156 56.925781 C 247.601562 56.253906 248.332031 55.804688 249.105469 55.578125 C 249.621094 55.429688 250.6875 55.21875 252.3125 54.945312 C 253.640625 54.550781 254.378906 54.335938 254.527344 54.304688 C 256.738281 53.902344 257.816406 53.660156 257.761719 53.589844 C 258.914062 53.109375 259.859375 52.355469 260.597656 51.335938 C 261.421875 50.3125 262.375 48.648438 263.464844 46.339844 C 263.652344 45.921875 264.089844 44.828125 264.773438 43.0625 C 264.875 42.691406 264.933594 42.289062 264.945312 41.855469 C 264.980469 41.539062 264.914062 41.0625 264.75 40.429688 C 264.515625 39.679688 264.203125 39.09375 263.816406 38.667969 C 263.246094 38.003906 262.410156 37.652344 261.304688 37.613281 M 261.074219 41.398438 L 261.085938 41.425781 C 261.175781 41.519531 261.195312 41.703125 261.152344 41.980469 C 260.300781 44.191406 259.773438 45.4375 259.574219 45.726562 C 258.542969 47.824219 257.675781 49.15625 256.972656 49.71875 C 256.722656 49.917969 256.464844 50.054688 256.203125 50.132812 L 253.96875 50.558594 C 253.527344 50.65625 252.691406 50.890625 251.457031 51.265625 C 248.960938 51.703125 247.660156 51.992188 247.546875 52.128906 C 248.226562 51.300781 248.890625 50.46875 249.539062 49.644531 C 249.726562 49.425781 249.988281 49.15625 250.328125 48.839844 C 252.242188 47.386719 253.507812 46.46875 254.117188 46.089844 C 254.914062 45.558594 255.796875 45.023438 256.769531 44.484375 C 258.007812 43.179688 258.664062 42.515625 258.746094 42.488281 C 259.746094 41.871094 260.523438 41.507812 261.074219 41.398438"/></g><path fill="#7D9B76" d="M 230 97.621094 L 229.960938 97.621094 C 229.511719 97.648438 229.066406 97.792969 228.617188 98.050781 C 228.160156 98.25 227.472656 98.839844 226.546875 99.820312 C 223.460938 101.25 221.027344 102.597656 219.242188 103.871094 C 217.265625 104.542969 215.773438 105.195312 214.765625 105.839844 C 213.761719 106.714844 212.984375 107.457031 212.433594 108.0625 C 209.519531 111.527344 207.792969 113.488281 207.246094 113.953125 C 204.5 116.269531 202.800781 117.757812 202.136719 118.417969 C 200.320312 120.367188 199.257812 121.824219 198.949219 122.792969 C 198.835938 123.1875 198.917969 123.652344 199.199219 124.1875 C 198.585938 124.730469 198.375 125.394531 198.570312 126.175781 C 198.960938 127.101562 199.566406 127.554688 200.386719 127.539062 C 200.65625 127.695312 201.546875 127.253906 203.046875 126.21875 L 206.683594 123.066406 L 211.90625 119.640625 C 214.824219 117.660156 216.898438 116.21875 218.140625 115.308594 C 219.382812 114.75 220.417969 114.191406 221.242188 113.636719 C 221.734375 113.300781 222.246094 112.898438 222.777344 112.429688 C 223.441406 111.796875 224.378906 110.558594 225.585938 108.710938 L 228.898438 102.886719 C 230.628906 101.695312 231.554688 100.867188 231.675781 100.398438 C 232.105469 98.761719 231.546875 97.832031 230 97.621094 M 222.726562 106.113281 L 222.367188 106.746094 C 221.628906 107.859375 221.0625 108.667969 220.660156 109.167969 L 220.3125 109.570312 C 220.078125 109.746094 219.855469 109.929688 219.648438 110.125 C 219.078125 110.625 217.925781 111.269531 216.191406 112.066406 C 213.816406 113.757812 211.910156 115.089844 210.472656 116.054688 C 211.894531 114.53125 213.472656 112.722656 215.207031 110.625 C 215.542969 110.234375 216.175781 109.632812 217.101562 108.816406 C 217.242188 108.652344 218.515625 108.140625 220.917969 107.273438 L 222.726562 106.113281"/><path fill="#7D9B76" d="M 181.613281 130.71875 L 181.464844 130.726562 C 180.921875 130.804688 180.523438 130.992188 180.273438 131.277344 C 178.183594 133.847656 176.578125 135.621094 175.460938 136.59375 C 171.410156 139.117188 168.019531 141.335938 165.289062 143.253906 C 164.878906 143.511719 163.332031 144.199219 160.644531 145.324219 C 159.808594 145.808594 158.78125 146.59375 157.554688 147.671875 C 155.378906 148.515625 153.394531 149.636719 151.605469 151.042969 C 149.265625 153.785156 147.542969 156.394531 146.445312 158.875 C 146.292969 159.464844 146.390625 160.003906 146.730469 160.492188 C 145.800781 161.21875 145.460938 161.988281 145.703125 162.804688 C 145.96875 163.703125 146.617188 164.167969 147.648438 164.207031 C 148.011719 164.164062 148.28125 164.082031 148.460938 163.964844 L 149.71875 162.976562 C 151.585938 162.835938 154.105469 161.863281 157.265625 160.0625 C 157.941406 159.621094 158.445312 159.226562 158.777344 158.871094 C 160.167969 156.976562 161.125 155.84375 161.640625 155.476562 C 162.316406 155 162.859375 154.683594 163.273438 154.527344 C 166.0625 153.824219 168.078125 153.175781 169.324219 152.578125 L 176.257812 146.753906 C 176.898438 146.070312 177.292969 145.550781 177.4375 145.191406 C 177.769531 144.042969 179.75 140.074219 183.375 133.28125 C 183.644531 131.753906 183.058594 130.898438 181.613281 130.71875 M 174.992188 141.34375 L 174.855469 141.636719 C 174.496094 142.414062 174.21875 143.0625 174.019531 143.589844 C 173.894531 143.757812 173.785156 143.890625 173.6875 143.984375 L 167.34375 149.359375 C 166.378906 149.761719 164.640625 150.28125 162.132812 150.921875 C 161.75 151.054688 161.296875 151.265625 160.773438 151.550781 C 159.734375 152.171875 159.058594 152.664062 158.738281 153.03125 C 157.949219 153.789062 157.027344 154.886719 155.980469 156.328125 L 155.613281 156.625 C 154.007812 157.679688 152.351562 158.449219 150.632812 158.933594 C 151.410156 157.453125 152.597656 155.742188 154.199219 153.800781 C 156.199219 152.390625 157.980469 151.433594 159.535156 150.925781 C 161.207031 149.492188 162.230469 148.703125 162.59375 148.558594 C 164.984375 147.605469 166.585938 146.882812 167.402344 146.382812 C 170.605469 144.179688 173.136719 142.5 174.992188 141.34375"/><path fill="#7D9B76" d="M 223.128906 152.878906 L 223.050781 152.878906 C 222.332031 152.867188 221.246094 153.328125 219.796875 154.257812 C 216.894531 156.800781 214.621094 158.820312 212.976562 160.316406 C 210.824219 162.214844 209.175781 163.867188 208.035156 165.273438 C 207 166.488281 206.226562 167.597656 205.71875 168.597656 C 205.441406 169.007812 205.1875 169.828125 204.957031 171.054688 C 204.382812 175.355469 204.054688 177.59375 203.964844 177.773438 L 203.539062 178.46875 C 203.914062 178.535156 204.175781 180.214844 204.324219 183.507812 C 204.484375 183.957031 204.867188 185.300781 205.472656 187.542969 C 205.828125 186.519531 206.214844 185.632812 206.636719 184.878906 C 208.320312 182.644531 210.652344 178.957031 213.628906 173.816406 L 221.570312 163.234375 L 225.179688 155.96875 C 225.265625 155.792969 225.324219 155.613281 225.355469 155.421875 C 225.539062 153.8125 224.796875 152.964844 223.128906 152.878906 M 218.9375 160.046875 L 218.28125 161.371094 L 210.535156 171.648438 L 208.128906 175.691406 C 208.328125 174.332031 208.503906 173.019531 208.664062 171.757812 C 208.816406 170.902344 208.96875 170.390625 209.125 170.226562 C 209.386719 169.71875 209.761719 169.152344 210.246094 168.527344 C 210.59375 168.066406 211.324219 167.222656 212.4375 165.996094 C 213.171875 165.210938 215.339844 163.226562 218.9375 160.046875"/><path fill="#7D9B76" d="M 123.667969 203.894531 L 123.640625 203.925781 C 122.992188 205.167969 122.519531 206.007812 122.222656 206.449219 C 121.960938 206.519531 121.671875 206.769531 121.355469 207.203125 C 121.121094 207.6875 121.03125 208.054688 121.085938 208.304688 C 121.132812 208.734375 121.386719 209.4375 121.851562 210.410156 C 122.308594 211.175781 122.925781 212.320312 123.707031 213.851562 C 123.964844 214.292969 124.210938 214.675781 124.449219 215.003906 C 125.875 216.746094 127.933594 218.207031 130.628906 219.390625 C 132.128906 219.953125 133.207031 220.269531 133.867188 220.335938 C 134.574219 220.324219 135.097656 220.085938 135.441406 219.628906 C 135.613281 219.457031 135.746094 219.144531 135.835938 218.695312 C 135.871094 218.433594 135.851562 218.1875 135.78125 217.949219 C 135.902344 217.5 135.972656 217.140625 135.988281 216.875 C 135.988281 216.664062 135.929688 216.480469 135.808594 216.324219 C 135.964844 216.035156 136.042969 215.734375 136.042969 215.421875 C 135.976562 214.71875 135.761719 214.238281 135.398438 213.984375 C 134.976562 213.613281 134.460938 213.46875 133.855469 213.542969 C 133.265625 213.59375 132.742188 214.019531 132.289062 214.8125 C 131.921875 214.667969 131.613281 214.691406 131.359375 214.871094 C 131.121094 215.074219 130.996094 215.25 130.976562 215.394531 L 130.203125 214.964844 C 130.597656 214.691406 130.855469 214.386719 130.972656 214.046875 C 131.210938 213.292969 131.640625 212.148438 132.261719 210.605469 C 132.34375 210.316406 132.363281 210.03125 132.324219 209.75 L 129.851562 208.265625 L 129.488281 208.433594 C 129.183594 208.613281 128.941406 208.871094 128.769531 209.207031 C 128.292969 210.328125 127.851562 211.496094 127.445312 212.710938 L 127.019531 212.050781 C 126.269531 210.566406 125.671875 209.460938 125.238281 208.738281 C 125.6875 208.070312 126.167969 207.234375 126.671875 206.230469 C 125.535156 205.464844 124.535156 204.683594 123.667969 203.894531 M 132.851562 218.28125 L 132.851562 218.289062 C 132.847656 218.320312 132.859375 218.382812 132.890625 218.480469 C 132.867188 218.472656 132.824219 218.460938 132.765625 218.441406 C 132.691406 218.417969 132.632812 218.394531 132.589844 218.378906 L 132.585938 218.378906 C 132.621094 218.367188 132.660156 218.355469 132.699219 218.339844 C 132.726562 218.328125 132.777344 218.308594 132.847656 218.28125 L 132.851562 218.28125"/><path fill="#7D9B76" d="M 184.328125 75.550781 L 184.328125 75.554688 C 184.320312 75.554688 184.316406 75.554688 184.308594 75.554688 L 184.292969 75.558594 L 184.269531 75.558594 L 184.234375 75.5625 L 184.210938 75.5625 C 184.191406 75.566406 184.175781 75.566406 184.15625 75.566406 C 184.148438 75.566406 184.140625 75.566406 184.132812 75.566406 C 184.121094 75.566406 184.113281 75.566406 184.105469 75.566406 C 184.097656 75.566406 184.089844 75.566406 184.085938 75.566406 C 184.085938 75.566406 184.085938 75.566406 184.089844 75.566406 C 184.097656 75.566406 184.105469 75.566406 184.113281 75.566406 L 184.171875 75.566406 C 184.179688 75.5625 184.183594 75.5625 184.191406 75.5625 C 184.195312 75.5625 184.203125 75.5625 184.214844 75.5625 C 184.226562 75.5625 184.230469 75.5625 184.230469 75.5625 L 184.253906 75.558594 L 184.296875 75.554688 L 184.328125 75.550781"/><path fill="#7D9B76" d="M 225.667969 53.375 L 225.570312 53.378906 L 222.507812 54.863281 C 222.144531 55.007812 221.476562 55.160156 220.503906 55.316406 C 218.945312 55.492188 216.859375 55.441406 214.253906 55.171875 C 213.132812 55.230469 212.21875 55.402344 211.511719 55.691406 L 201.246094 65.070312 C 199.964844 66.222656 198.410156 67.378906 196.585938 68.535156 C 193.589844 69.703125 189.179688 70.828125 183.359375 71.917969 C 181.28125 72.832031 179.707031 73.667969 178.640625 74.421875 C 178.171875 74.78125 177.738281 75.191406 177.335938 75.644531 L 167.542969 87.417969 C 166.875 87.972656 166.078125 88.433594 165.160156 88.808594 C 162.84375 89.253906 160.984375 89.773438 159.574219 90.375 C 157.566406 91.878906 156.285156 93.171875 155.726562 94.257812 C 154.058594 96.464844 153.621094 98.941406 154.417969 101.691406 C 154.429688 102.121094 154.75 102.863281 155.378906 103.925781 C 155.953125 104.648438 156.71875 105.011719 157.679688 105.015625 C 158.40625 104.992188 159.050781 104.710938 159.617188 104.175781 C 160.179688 103.691406 160.445312 102.90625 160.410156 101.808594 C 161.609375 100.277344 162.601562 99.320312 163.382812 98.949219 C 170.996094 98.496094 175.578125 97.671875 177.128906 96.476562 L 181.191406 93.734375 C 182.90625 92.074219 184.246094 90.289062 185.210938 88.386719 C 186.054688 87.457031 186.863281 86.6875 187.640625 86.082031 C 188.765625 85.621094 189.699219 85.289062 190.441406 85.085938 C 194.507812 84.945312 197.578125 84.644531 199.648438 84.1875 C 201.039062 83.777344 202.238281 83.203125 203.242188 82.464844 C 204.507812 81.523438 205.4375 80.683594 206.019531 79.949219 C 206.925781 77.75 209.726562 73.671875 214.429688 67.722656 L 226.457031 58.027344 C 227.210938 56.90625 227.578125 55.976562 227.558594 55.238281 C 227.253906 54.082031 226.625 53.460938 225.667969 53.375 Z M 184.074219 75.566406 C 184.074219 75.566406 184.074219 75.566406 184.074219 75.570312 L 184.074219 75.566406 L 184.070312 75.566406 L 184.074219 75.566406 M 214.3125 58.953125 L 215.304688 59.042969 C 216.46875 59.140625 217.71875 59.191406 219.050781 59.195312 C 215.675781 61.808594 213.222656 63.777344 211.699219 65.105469 C 207.929688 69.632812 205.003906 73.855469 202.925781 77.78125 C 202.566406 78.183594 201.902344 78.746094 200.933594 79.464844 C 200 80.0625 199.246094 80.421875 198.683594 80.546875 C 195.996094 81 193.070312 81.265625 189.910156 81.34375 C 188.929688 81.554688 187.597656 82.011719 185.910156 82.71875 C 184.613281 83.621094 183.390625 84.722656 182.246094 86.027344 C 181.171875 88.058594 179.984375 89.6875 178.679688 90.914062 L 175.214844 93.214844 C 171.351562 94.589844 167.371094 95.207031 163.28125 95.058594 C 163.699219 94.289062 163.828125 93.605469 163.667969 93 C 165.109375 92.71875 166.140625 92.476562 166.765625 92.273438 C 168.339844 91.519531 169.496094 90.785156 170.242188 90.0625 L 180.203125 78.105469 C 180.550781 77.738281 180.847656 77.46875 181.089844 77.300781 C 182.109375 76.695312 183.234375 76.105469 184.472656 75.53125 C 192.480469 73.949219 197.371094 72.574219 199.148438 71.410156 C 201.675781 69.851562 206.355469 65.746094 213.1875 59.097656 L 214.3125 58.953125"/><path fill="#7D9B76" d="M 123.460938 185.109375 L 123.414062 185.109375 C 123.230469 185.121094 123.082031 185.140625 122.964844 185.175781 L 121.632812 185.617188 C 121.367188 185.710938 121.136719 185.84375 120.945312 186.023438 C 120.753906 186.203125 120.605469 186.414062 120.5 186.652344 C 120.445312 186.683594 120.34375 187.140625 120.183594 188.027344 C 120.128906 188.488281 120.207031 188.902344 120.417969 189.273438 C 120.644531 189.65625 120.964844 189.980469 121.390625 190.246094 C 121.949219 191.113281 122.375 191.699219 122.660156 192.003906 C 123.753906 193.101562 125.007812 193.914062 126.421875 194.4375 L 131.316406 196.074219 C 131.78125 196.175781 132.210938 196.128906 132.613281 195.925781 C 132.964844 196.171875 133.339844 196.296875 133.746094 196.296875 C 134.238281 196.296875 134.679688 196.117188 135.0625 195.761719 C 135.914062 194.914062 136.84375 193.816406 137.847656 192.472656 C 138.261719 191.652344 138.164062 190.898438 137.5625 190.207031 C 136.890625 189.609375 136.167969 189.484375 135.398438 189.824219 C 135.105469 189.984375 134.914062 190.128906 134.820312 190.253906 C 133.828125 191.511719 133.15625 192.3125 132.808594 192.664062 C 132.660156 192.570312 132.527344 192.503906 132.40625 192.460938 L 130.542969 191.839844 L 132.171875 190.410156 C 133.335938 189.289062 133.859375 188.734375 133.746094 188.75 C 133.988281 188.296875 134.050781 187.828125 133.925781 187.335938 C 133.722656 186.796875 133.492188 186.457031 133.238281 186.316406 C 132.449219 185.828125 131.722656 185.804688 131.058594 186.246094 L 129.488281 187.753906 L 127.429688 189.550781 L 126.675781 190.390625 C 126.148438 190.09375 125.707031 189.746094 125.351562 189.359375 C 125.640625 189.097656 125.765625 188.820312 125.730469 188.535156 C 125.765625 188.339844 125.601562 188.042969 125.234375 187.648438 C 125.429688 187.089844 125.378906 186.550781 125.082031 186.03125 C 124.703125 185.4375 124.160156 185.128906 123.460938 185.109375 M 124.945312 188.175781 C 124.953125 188.191406 124.964844 188.207031 124.972656 188.222656 L 124.96875 188.222656 C 124.964844 188.214844 124.957031 188.210938 124.953125 188.203125 C 124.949219 188.191406 124.941406 188.183594 124.9375 188.179688 L 124.933594 188.183594 L 124.933594 188.179688 L 124.9375 188.179688 C 124.9375 188.179688 124.9375 188.175781 124.9375 188.175781 L 124.945312 188.175781 M 124.882812 188.410156 L 125.09375 188.492188 L 125.300781 188.574219 C 125.289062 188.613281 125.257812 188.671875 125.21875 188.75 C 125.214844 188.75 125.214844 188.753906 125.214844 188.753906 L 125.222656 188.703125 L 125.21875 188.703125 L 125.183594 188.773438 C 125.171875 188.792969 125.160156 188.816406 125.144531 188.839844 C 125.128906 188.859375 125.113281 188.878906 125.097656 188.898438 L 125.054688 188.941406 C 124.941406 188.773438 124.839844 188.621094 124.746094 188.476562 L 124.742188 188.480469 C 124.789062 188.457031 124.835938 188.433594 124.882812 188.410156"/><path fill="#7D9B76" d="M 208.195312 202.402344 L 208.121094 202.402344 C 207.757812 202.386719 207.230469 202.605469 206.535156 203.066406 C 205.5 203.691406 204.433594 204.46875 203.34375 205.40625 C 202.253906 206.34375 201.136719 207.433594 199.992188 208.683594 C 199.464844 209.28125 198.984375 209.902344 198.546875 210.542969 C 198.125 211.128906 197.683594 211.882812 197.230469 212.808594 C 196.363281 214.828125 195.898438 215.875 195.828125 215.953125 C 195.75 216.046875 195.683594 216.148438 195.632812 216.253906 L 193.964844 217.945312 C 193.886719 218 193.773438 218.21875 193.628906 218.601562 C 193.507812 219.335938 193.609375 219.878906 193.921875 220.226562 C 194.328125 220.738281 194.835938 220.996094 195.449219 221 C 195.851562 221 196.222656 220.878906 196.566406 220.632812 C 197.644531 219.621094 198.367188 218.886719 198.730469 218.421875 C 198.828125 218.308594 199 218.019531 199.246094 217.554688 C 199.664062 216.6875 200.105469 215.691406 200.574219 214.5625 L 201.183594 213.40625 C 201.792969 212.453125 202.324219 211.730469 202.773438 211.234375 C 205.183594 208.699219 207.050781 207.078125 208.367188 206.375 C 208.355469 204.679688 208.382812 203.832031 208.445312 203.839844 C 208.589844 203.300781 208.835938 202.910156 209.175781 202.675781 C 208.875 202.496094 208.546875 202.402344 208.195312 202.402344 M 196.25 215.546875 L 196.222656 215.566406 C 196.167969 215.601562 196.117188 215.644531 196.070312 215.6875 C 196.011719 215.738281 195.972656 215.777344 195.953125 215.800781 L 195.949219 215.800781 L 195.976562 215.769531 L 196.007812 215.742188 C 196.027344 215.71875 196.046875 215.699219 196.070312 215.679688 L 196.101562 215.652344 C 196.125 215.632812 196.144531 215.617188 196.167969 215.597656 L 196.207031 215.570312 L 196.242188 215.546875 L 196.25 215.546875 M 195.578125 216.378906 L 195.574219 216.386719 C 195.550781 216.445312 195.527344 216.511719 195.503906 216.585938 L 195.457031 216.796875 L 195.445312 216.902344 L 195.4375 217.011719 L 195.433594 217.121094 L 195.4375 217.226562 L 195.449219 217.335938 L 195.464844 217.441406 L 195.488281 217.546875 L 195.515625 217.652344 L 195.550781 217.753906 L 195.546875 217.753906 L 195.488281 217.589844 L 195.441406 217.425781 L 195.414062 217.265625 L 195.402344 217.109375 L 195.402344 216.957031 L 195.421875 216.808594 L 195.457031 216.660156 L 195.507812 216.519531 L 195.570312 216.378906 L 195.578125 216.378906"/><path fill="#7D9B76" d="M 224.742188 120.886719 L 224.703125 120.886719 C 224.417969 120.902344 224.160156 120.9375 223.933594 120.996094 C 223.597656 121.761719 223.003906 122.15625 222.15625 122.1875 C 221.824219 122.523438 221.148438 123.328125 220.125 124.613281 L 218.117188 126.640625 C 218.09375 126.722656 217.285156 127.328125 215.691406 128.460938 L 215.03125 129.039062 C 214.339844 129.648438 213.519531 130.929688 212.578125 132.882812 C 212.421875 133.382812 212.457031 133.859375 212.675781 134.308594 C 212.976562 134.796875 213.265625 135.082031 213.539062 135.171875 C 213.972656 135.390625 214.457031 135.421875 214.996094 135.261719 L 216.820312 135.882812 C 217.15625 136.003906 217.71875 136.289062 218.511719 136.742188 C 218.683594 136.820312 218.882812 136.898438 219.101562 136.976562 C 219.394531 137.097656 219.832031 137.167969 220.414062 137.179688 C 221.722656 137.101562 222.859375 136.53125 223.820312 135.476562 C 224.441406 134.695312 225.230469 133.324219 226.179688 131.359375 C 226.671875 130.449219 227.132812 129.230469 227.5625 127.703125 C 227.84375 126.644531 227.992188 125.828125 228.015625 125.246094 C 227.996094 124.121094 227.871094 123.378906 227.632812 123.027344 C 227.070312 121.835938 226.109375 121.121094 224.742188 120.886719 M 220.019531 133.371094 L 220.039062 133.371094 C 220.085938 133.371094 220.136719 133.375 220.179688 133.378906 C 220.171875 133.378906 220.160156 133.378906 220.152344 133.378906 C 220.144531 133.378906 220.132812 133.378906 220.125 133.375 C 220.117188 133.375 220.105469 133.375 220.097656 133.375 C 220.089844 133.375 220.078125 133.375 220.070312 133.375 L 220.042969 133.375 C 220.03125 133.375 220.023438 133.375 220.015625 133.375 L 219.96875 133.375 C 219.957031 133.375 219.945312 133.375 219.9375 133.375 C 219.933594 133.375 219.925781 133.375 219.910156 133.375 C 219.917969 133.375 219.925781 133.375 219.933594 133.375 C 219.941406 133.375 219.949219 133.375 219.960938 133.375 L 219.984375 133.371094 L 219.996094 133.371094 C 220.003906 133.371094 220.011719 133.371094 220.019531 133.371094 M 224.175781 125.609375 L 224.167969 125.644531 C 223.9375 126.824219 223.585938 127.953125 223.113281 129.027344 C 222.332031 130.726562 221.605469 132.066406 220.929688 133.042969 C 220.632812 133.308594 220.425781 133.425781 220.308594 133.398438 L 220.171875 133.351562 C 219.527344 132.984375 219.070312 132.742188 218.792969 132.625 C 218.421875 132.445312 217.945312 132.261719 217.371094 132.078125 C 217.542969 131.855469 217.757812 131.640625 218.019531 131.4375 C 219.332031 130.515625 220.21875 129.839844 220.679688 129.410156 L 222.96875 127.097656 C 223.726562 126.144531 224.128906 125.648438 224.175781 125.609375 M 216.460938 135.660156 L 216.480469 135.675781 C 216.527344 135.710938 216.574219 135.746094 216.621094 135.777344 C 216.679688 135.8125 216.71875 135.835938 216.746094 135.847656 C 216.722656 135.835938 216.699219 135.824219 216.679688 135.8125 C 216.65625 135.800781 216.632812 135.785156 216.613281 135.773438 L 216.578125 135.75 C 216.558594 135.738281 216.535156 135.722656 216.515625 135.707031 L 216.453125 135.660156 L 216.460938 135.660156"/><path fill="#7D9B76" d="M 251.546875 185.605469 L 251.339844 185.613281 C 250.15625 185.800781 249.222656 186.484375 248.53125 187.65625 L 244.21875 196.941406 L 241.28125 207.789062 C 241.019531 208.582031 240.773438 209.1875 240.542969 209.605469 L 229.285156 218.425781 C 228.695312 219.152344 228.015625 220.242188 227.246094 221.691406 C 226.320312 223.5 225.863281 225.023438 225.886719 226.265625 C 225.226562 226.96875 223.558594 229.765625 220.890625 234.65625 C 220.273438 236.804688 219.238281 239.4375 217.777344 242.5625 C 216.726562 245.738281 217.257812 247.503906 219.375 247.863281 C 219.796875 247.875 220.222656 247.6875 220.652344 247.308594 L 223.683594 243.808594 C 225.855469 242.589844 227.523438 241.609375 228.6875 240.863281 C 232.363281 237.453125 235.679688 235.058594 238.636719 233.6875 C 239.1875 233.078125 240.140625 231.824219 241.496094 229.921875 L 245.574219 221.242188 C 248.199219 218.210938 249.808594 215.96875 250.394531 214.519531 C 251.246094 212.921875 252.527344 210.097656 254.230469 206.046875 C 254.441406 204.082031 254.558594 202.425781 254.585938 201.070312 C 254.847656 197.21875 254.515625 192.570312 253.585938 187.132812 C 253.40625 186.207031 252.726562 185.699219 251.546875 185.605469 M 237.085938 230.5 L 237.132812 230.5 C 237.257812 230.503906 237.382812 230.523438 237.511719 230.5625 C 237.332031 230.527344 237.148438 230.519531 236.964844 230.535156 L 236.902344 230.542969 C 236.859375 230.550781 236.820312 230.554688 236.777344 230.5625 C 236.738281 230.574219 236.695312 230.582031 236.65625 230.59375 C 236.574219 230.613281 236.496094 230.640625 236.417969 230.675781 C 236.464844 230.648438 236.511719 230.625 236.5625 230.605469 L 236.636719 230.578125 L 236.707031 230.554688 L 236.785156 230.535156 L 236.859375 230.519531 L 236.933594 230.507812 L 237.011719 230.5 L 237.085938 230.5 M 238.84375 231.570312 L 238.902344 231.683594 L 238.953125 231.800781 L 238.992188 231.921875 L 239.023438 232.042969 L 239.042969 232.167969 L 239.050781 232.296875 L 239.050781 232.429688 L 239.039062 232.566406 L 239.019531 232.703125 C 239.015625 232.703125 239.015625 232.703125 239.015625 232.703125 L 239.027344 232.605469 L 239.035156 232.507812 L 239.035156 232.3125 L 239.027344 232.21875 L 239.011719 232.121094 L 238.996094 232.027344 L 238.972656 231.933594 L 238.945312 231.839844 L 238.914062 231.75 L 238.878906 231.660156 L 238.835938 231.570312 L 238.84375 231.574219 M 250.546875 192.164062 L 250.667969 193.460938 C 250.949219 196.96875 250.917969 200.832031 250.566406 205.054688 C 248.644531 209.539062 247.292969 212.464844 246.507812 213.824219 C 246.03125 214.753906 244.648438 216.554688 242.363281 219.222656 L 238.214844 228.046875 L 236.148438 230.800781 C 234.917969 231.363281 233.601562 232.136719 232.195312 233.117188 C 229.667969 234.984375 227.761719 236.546875 226.476562 237.796875 C 225.179688 238.597656 224.054688 239.265625 223.09375 239.808594 C 223.640625 238.371094 224.046875 237.1875 224.316406 236.253906 L 225.683594 233.753906 C 226.941406 231.488281 227.871094 229.921875 228.476562 229.058594 L 228.746094 228.683594 C 228.914062 228.652344 229.152344 228.507812 229.460938 228.257812 C 229.542969 228.214844 229.683594 228.015625 229.882812 227.664062 C 230.160156 227.03125 230.09375 226.402344 229.675781 225.765625 L 229.855469 225.019531 C 230.140625 224.285156 230.347656 223.808594 230.480469 223.597656 L 231.953125 221.128906 L 243.179688 212.328125 C 243.375 212.175781 243.535156 211.992188 243.65625 211.777344 C 244.070312 211.105469 244.488281 210.121094 244.910156 208.828125 L 247.71875 198.363281 L 250.546875 192.164062"/><path fill="#7D9B76" d="M 147.578125 170.742188 L 145.9375 170.816406 C 141.4375 171.207031 135.875 173.167969 129.253906 176.703125 C 120.285156 178.535156 113.167969 178.476562 107.898438 176.519531 C 107.1875 176.496094 105.519531 176.9375 102.894531 177.851562 L 100.414062 178.796875 L 91.136719 184.164062 C 83.648438 191.316406 79.945312 194.578125 80.027344 193.949219 C 78.796875 195.007812 77.625 196.660156 76.515625 198.898438 C 74.6875 202.855469 73.121094 207.523438 71.816406 212.902344 C 71.953125 227.324219 71.539062 235.972656 70.574219 238.839844 L 72.832031 245.210938 L 74.09375 247.058594 L 81.664062 263.285156 L 87.277344 270.890625 C 91.207031 273.832031 94.332031 276.375 96.660156 278.519531 C 101.429688 281.722656 108.335938 284.9375 117.378906 288.160156 C 118.066406 288.707031 118.523438 289.304688 118.746094 289.964844 L 120.773438 290.914062 C 125.71875 291.472656 130.929688 291.085938 136.394531 289.753906 C 140.613281 291.308594 143.902344 291.882812 146.261719 291.476562 C 147.210938 291.535156 148.578125 290.734375 150.359375 289.070312 C 151.78125 287.734375 153.605469 285.734375 155.824219 283.066406 C 163.695312 276.285156 170.726562 269.449219 176.921875 262.558594 L 182.273438 249.207031 C 187.097656 244.550781 189.84375 241.277344 190.515625 239.386719 C 191.339844 238.03125 191.753906 236.179688 191.757812 233.835938 C 191.75 228.730469 191.070312 223.527344 189.722656 218.222656 L 184.105469 207.191406 L 172.492188 192.035156 C 171.789062 190.789062 171.289062 189.640625 170.992188 188.582031 L 170.222656 183.753906 C 169.839844 183.191406 169.304688 182.8125 168.613281 182.617188 C 167.867188 180.777344 167.082031 179.453125 166.25 178.636719 C 165.0625 177.71875 163.203125 176.511719 160.671875 175.019531 C 157.601562 172.917969 153.234375 171.492188 147.578125 170.742188 M 94.101562 195.632812 L 94.042969 195.636719 C 93.75 195.679688 93.542969 195.753906 93.429688 195.859375 C 93.09375 195.792969 92.789062 195.800781 92.523438 195.882812 C 92.320312 195.917969 92.0625 196.058594 91.761719 196.296875 C 91.253906 196.785156 91.054688 197.375 91.171875 198.066406 C 91.628906 199.328125 92.058594 200.015625 92.453125 200.140625 C 92.757812 200.320312 93.082031 200.414062 93.433594 200.414062 C 93.769531 200.417969 94.097656 200.324219 94.417969 200.136719 C 94.527344 200.1875 94.648438 200.222656 94.777344 200.234375 C 96.078125 202.679688 96.367188 204.695312 95.652344 206.273438 C 95.488281 206.511719 95.289062 206.714844 95.0625 206.882812 C 93.75 205.136719 92.402344 203.539062 91.019531 202.085938 C 90.425781 201.601562 89.804688 201.460938 89.164062 201.667969 C 88.207031 202.007812 87.78125 202.742188 87.890625 203.878906 C 88.011719 204.265625 88.113281 204.492188 88.1875 204.550781 C 90.40625 207.011719 91.847656 208.765625 92.511719 209.804688 L 91.257812 211.8125 C 90.675781 212.695312 90.320312 213.199219 90.199219 213.324219 C 89.753906 213.113281 89.332031 213.054688 88.9375 213.144531 L 87.636719 211.210938 C 87.550781 211.125 87.5 210.765625 87.476562 210.140625 C 87.488281 210.046875 87.402344 209.824219 87.222656 209.46875 C 86.957031 209.054688 86.585938 208.777344 86.105469 208.640625 C 84.875 208.488281 84.101562 208.953125 83.78125 210.039062 C 83.699219 210.953125 83.785156 211.71875 84.027344 212.339844 C 84.125 212.621094 84.246094 212.890625 84.390625 213.140625 L 86.449219 216.179688 C 86.1875 216.773438 86.203125 217.347656 86.503906 217.902344 C 86.863281 218.527344 87.429688 218.847656 88.195312 218.871094 C 89.875 218.601562 91.40625 217.667969 92.796875 216.074219 C 93.550781 215.230469 94.671875 213.550781 96.160156 211.046875 C 96.1875 210.960938 96.824219 210.363281 98.078125 209.25 C 98.371094 208.933594 98.601562 208.644531 98.777344 208.382812 C 99.097656 207.996094 99.378906 207.300781 99.621094 206.300781 C 99.921875 204.910156 99.875 203.457031 99.488281 201.933594 C 99.296875 201.144531 99.125 200.566406 98.976562 200.199219 C 98.210938 198.769531 97.671875 197.566406 97.355469 196.59375 C 97.210938 196.367188 97.0625 196.230469 96.902344 196.179688 C 96.636719 196.082031 96.125 196.015625 95.371094 195.984375 L 94.101562 195.632812 M 99.070312 245.246094 L 99.054688 245.25 C 99.011719 245.261719 98.96875 245.269531 98.925781 245.277344 L 99.066406 245.246094 L 99.070312 245.25 M 96.214844 232.703125 L 96.019531 232.714844 C 94.816406 232.941406 94.269531 233.703125 94.371094 235 C 92.722656 235.472656 91.699219 235.898438 91.300781 236.28125 C 91.078125 236.441406 90.894531 236.792969 90.746094 237.34375 C 90.695312 237.667969 90.726562 237.988281 90.847656 238.3125 C 91.132812 239.066406 91.746094 239.472656 92.691406 239.527344 C 92.917969 239.511719 93.097656 239.476562 93.222656 239.425781 C 93.851562 239.113281 94.640625 238.832031 95.582031 238.582031 C 96.449219 238.335938 97.320312 238.140625 98.191406 238 C 99.914062 239.507812 101.144531 240.542969 101.875 241.109375 C 99.820312 241.144531 98.132812 241.464844 96.816406 242.066406 C 95.972656 242.507812 95.589844 243.175781 95.675781 244.070312 C 95.851562 245 96.421875 245.542969 97.390625 245.695312 C 97.523438 245.714844 97.707031 245.703125 97.9375 245.664062 C 98.675781 245.324219 99.484375 245.101562 100.363281 244.996094 C 100.753906 244.902344 101.972656 244.859375 104.027344 244.859375 C 104.179688 245.605469 104.132812 246.378906 103.886719 247.175781 C 103.652344 247.808594 103.203125 248.753906 102.542969 250.003906 C 102.308594 249.441406 101.796875 249.085938 101.015625 248.933594 C 99.746094 249.21875 98.359375 249.359375 96.863281 249.359375 C 95.753906 249.617188 95.222656 250.332031 95.269531 251.5 C 95.320312 252.167969 95.777344 252.6875 96.636719 253.046875 C 98.054688 253.167969 99.484375 253.070312 100.933594 252.753906 C 100.992188 254.085938 101.660156 254.773438 102.933594 254.820312 C 104.238281 254.765625 105.722656 252.691406 107.378906 248.589844 C 107.707031 247.597656 107.875 246.722656 107.882812 245.957031 C 107.929688 245.761719 107.871094 245.101562 107.699219 243.972656 C 107.605469 243.515625 107.480469 243.042969 107.320312 242.554688 C 106.925781 241.109375 106.316406 239.96875 105.5 239.140625 C 104.492188 238.433594 102.609375 236.863281 99.847656 234.433594 C 98.273438 233.34375 97.0625 232.765625 96.214844 232.703125 M 156.898438 254.417969 L 157.292969 254.8125 C 158.003906 255.515625 158.585938 256.128906 159.046875 256.652344 C 159.917969 257.644531 161.6875 259.851562 164.355469 263.273438 C 165.035156 264.089844 165.558594 264.695312 165.929688 265.085938 C 165.417969 265.679688 164.753906 266.503906 163.9375 267.5625 C 163.859375 267.300781 163.726562 267.066406 163.539062 266.851562 L 163.308594 266.632812 C 162.710938 266.210938 162.242188 265.84375 161.902344 265.527344 C 161.433594 264.898438 160.488281 263.8125 159.0625 262.269531 C 158.683594 261.769531 157.714844 260.242188 156.164062 257.675781 C 155.929688 257.324219 155.617188 256.929688 155.21875 256.496094 C 156.128906 255.234375 156.6875 254.539062 156.898438 254.417969 M 131.957031 272.808594 L 131.980469 272.875 C 132.046875 273.054688 132.140625 273.226562 132.261719 273.386719 C 132.792969 273.964844 133.121094 274.347656 133.242188 274.539062 C 134.707031 276.988281 135.511719 278.273438 135.660156 278.394531 C 136.375 279.109375 137.257812 280.140625 138.3125 281.496094 L 141.089844 284.378906 L 135.460938 283.960938 L 133.496094 280.589844 C 133.1875 280.164062 132.546875 279.441406 131.574219 278.417969 L 131.589844 278.429688 C 131.410156 278.191406 131.226562 277.933594 131.039062 277.652344 L 130.160156 276.355469 C 129.4375 275.570312 128.957031 275.035156 128.722656 274.75 L 127.882812 273.464844 C 129.28125 273.027344 130.640625 272.808594 131.957031 272.808594 M 148.957031 177.277344 L 149.347656 177.277344 C 152.289062 176.75 156.738281 178.730469 162.695312 183.214844 C 163.140625 183.625 164.484375 187.316406 166.734375 194.285156 L 168.914062 196.875 C 169.640625 198.671875 170.652344 200.644531 171.953125 202.800781 C 172.484375 203.742188 175.105469 206.542969 179.816406 211.195312 L 180.601562 212.761719 C 179.4375 211.441406 178.199219 211.589844 176.878906 213.207031 C 176.054688 214.101562 176.089844 215.191406 176.980469 216.484375 C 177.429688 217.15625 177.824219 217.625 178.167969 217.894531 L 182.9375 221.519531 C 183.523438 221.917969 184.125 221.972656 184.734375 221.683594 C 185.601562 226.15625 185.898438 228.28125 185.628906 228.066406 C 181.757812 225.519531 179.453125 223.714844 178.714844 222.65625 C 176.734375 222.664062 175.988281 223.539062 176.46875 225.289062 C 177.65625 227.320312 180.695312 229.597656 185.585938 232.117188 L 185.539062 233.675781 L 185.390625 237.035156 C 184.554688 238.503906 183.558594 239.855469 182.40625 241.089844 L 174.28125 232.574219 C 171.769531 230.570312 170.070312 230.269531 169.183594 231.671875 C 168.734375 232.421875 168.78125 233.167969 169.324219 233.910156 L 172.351562 235.84375 C 174.015625 237.785156 176.335938 240.203125 179.300781 243.089844 C 179.519531 243.300781 179.761719 243.453125 180.03125 243.542969 L 178.546875 244.9375 C 177.523438 243.136719 175.765625 241.652344 173.265625 240.484375 C 172.269531 240.082031 171.453125 240.304688 170.820312 241.15625 C 170.378906 241.910156 170.429688 242.652344 170.96875 243.386719 C 173.355469 244.453125 175.195312 246.15625 176.484375 248.5 L 175.859375 250.089844 L 170.355469 245.273438 C 166.4375 240.664062 164.398438 238.429688 164.238281 238.570312 C 163.050781 237.550781 161.976562 237.554688 161.011719 238.585938 C 160.496094 239.5625 160.550781 240.367188 161.175781 241.003906 L 162.660156 242.207031 L 167.71875 247.96875 L 174.445312 253.738281 L 173.476562 256.203125 C 170.210938 252.5625 168.105469 251.640625 167.15625 253.445312 C 166.699219 254.136719 166.710938 254.871094 167.195312 255.648438 C 168.285156 256.277344 169.691406 257.609375 171.410156 259.640625 L 168.476562 262.277344 C 163.726562 256.320312 161.167969 253.226562 160.792969 252.996094 C 164.554688 253.207031 165.597656 252.042969 163.917969 249.5 C 160.195312 248.527344 156.761719 249.5 153.613281 252.410156 C 151.542969 254.277344 150.542969 256.8125 150.601562 260.011719 C 151.414062 261.167969 152.390625 261.363281 153.527344 260.605469 C 155.246094 263.636719 157.097656 266.113281 159.082031 268.035156 C 160.789062 269.539062 161.6875 270.183594 161.777344 269.960938 L 159.382812 272.144531 L 155.042969 266.601562 C 154.152344 266.070312 153.359375 266.097656 152.660156 266.683594 C 151.953125 267.476562 151.820312 268.261719 152.261719 269.039062 L 156.597656 274.695312 L 155.386719 275.792969 L 148.425781 267.867188 L 144.121094 261.410156 C 143.082031 260.625 142.136719 260.695312 141.292969 261.613281 C 140.882812 262.179688 140.804688 262.796875 141.046875 263.464844 L 144.996094 269.550781 L 152.597656 278.347656 L 149.917969 280.792969 C 148.84375 279.820312 147.894531 278.761719 147.070312 277.613281 C 146.3125 277.203125 145.59375 277.25 144.910156 277.746094 C 143.484375 278.980469 144.226562 280.84375 147.128906 283.339844 L 145.625 284.714844 C 145.496094 283.972656 145.148438 283.304688 144.585938 282.710938 C 139.066406 276.777344 136.574219 273.761719 137.113281 273.660156 C 138.460938 274.179688 139.722656 274.816406 140.894531 275.570312 C 141.210938 275.71875 141.570312 275.765625 141.972656 275.707031 C 143.4375 275.25 143.851562 274.269531 143.214844 272.765625 C 141.90625 271.503906 139.472656 270.375 135.917969 269.375 C 129.160156 268.386719 124.503906 269.765625 121.949219 273.515625 C 121.707031 274.167969 121.796875 274.785156 122.210938 275.367188 C 122.707031 276.011719 123.414062 276.21875 124.34375 275.992188 C 125.542969 277.933594 126.75 279.210938 127.957031 279.824219 L 131.039062 283.875 L 125.886719 284.011719 C 123.132812 277.609375 120.214844 273.464844 117.128906 271.585938 C 115.503906 271.667969 114.832031 272.511719 115.113281 274.128906 C 117.734375 276.753906 119.851562 279.886719 121.460938 283.53125 L 117.9375 282.371094 C 117.910156 281.988281 117.769531 281.640625 117.523438 281.328125 C 115.921875 279.804688 114.726562 278.503906 113.941406 277.433594 L 111.242188 271.289062 L 108.273438 266.820312 C 107.210938 266.589844 105.5625 266.023438 103.324219 265.125 L 102.855469 265.019531 C 105.585938 269.9375 107.285156 272.648438 107.945312 273.152344 L 110.851562 279.59375 C 108.085938 278.4375 104.769531 276.738281 100.910156 274.492188 C 100.121094 273.554688 99.109375 272.742188 97.875 272.054688 C 99.1875 271.972656 99.835938 271.242188 99.824219 269.871094 C 98.960938 268.703125 97.984375 266.289062 96.894531 262.628906 L 91.09375 259.398438 L 92.667969 261.964844 C 94.398438 267.410156 95.472656 270.226562 95.898438 270.410156 L 91.34375 266.90625 L 86.5 260.3125 L 76.371094 238.542969 C 76.769531 234.425781 77.261719 231.742188 77.851562 230.496094 L 77.402344 227.058594 C 77.519531 222.292969 77.523438 217.878906 77.414062 213.8125 C 77.953125 211.429688 78.695312 208.925781 79.644531 206.304688 L 80.007812 205.316406 L 94.453125 188.785156 L 97.355469 187.105469 L 108.457031 182.644531 C 112.46875 183.875 118.609375 183.917969 126.871094 182.765625 L 131.003906 182.132812 C 131.949219 181.183594 135.800781 179.71875 142.558594 177.742188 C 142.46875 177.515625 144.601562 177.359375 148.957031 177.277344"/><g clip-path="url(#b)"><path fill="#7D9B76" d="M 288.671875 40.976562 L 288.410156 40.980469 L 264.644531 56.691406 C 258.726562 61.296875 253.988281 66.496094 250.433594 72.289062 L 240.363281 80.160156 C 242.832031 73.703125 241.515625 70.878906 236.410156 71.6875 C 234.503906 74.726562 229.964844 78.050781 222.796875 81.65625 C 220.203125 86.605469 218.363281 89.195312 217.28125 89.425781 L 210.660156 92.988281 C 203.671875 93.09375 199.996094 93.53125 199.632812 94.300781 C 192.835938 104.414062 188.105469 110.457031 185.445312 112.429688 L 180.628906 113.699219 C 170.617188 113.242188 164.5625 113.382812 162.46875 114.121094 C 161.277344 113.886719 158.410156 117.597656 153.867188 125.261719 C 150.566406 128.339844 148.730469 129.929688 148.347656 130.035156 C 147.703125 130.421875 145.226562 130.757812 140.921875 131.039062 C 133.808594 129.625 129.058594 129.203125 126.675781 129.777344 C 123.339844 131.265625 120.820312 132.785156 119.113281 134.335938 C 117.558594 138.695312 114.167969 142.78125 108.945312 146.585938 C 105.53125 147.730469 98.863281 148.273438 88.941406 148.214844 C 83.675781 150.015625 80.898438 151.6875 80.605469 153.230469 L 73.570312 184.820312 L 71.660156 187.976562 C 70.171875 188.183594 65.023438 194.117188 56.207031 205.769531 C 54.992188 209.828125 54.296875 213.460938 54.121094 216.667969 C 53.675781 221.847656 54.078125 226.96875 55.324219 232.039062 C 57.019531 236.464844 58.304688 239.398438 59.183594 240.839844 L 69.601562 257.253906 C 70.398438 261.167969 70.71875 265.484375 70.574219 270.203125 C 70.90625 269.960938 71.585938 272.863281 72.613281 278.910156 C 76.367188 286.257812 80.09375 290.902344 83.800781 292.84375 L 109.097656 302.941406 L 121.550781 302.945312 C 130.027344 306.886719 136.3125 308.78125 140.40625 308.625 C 142.496094 309.300781 147.328125 306.074219 154.90625 298.9375 C 160.523438 299.046875 163.746094 298.738281 164.582031 298.011719 L 174.246094 288.046875 L 188.394531 284.484375 C 189.789062 277.914062 195.800781 270.128906 206.429688 261.132812 C 207.867188 258.585938 208.496094 255.816406 208.316406 252.820312 C 205.691406 247.648438 204.617188 243.113281 205.097656 239.214844 C 205.675781 237.125 208.539062 234.871094 213.691406 232.445312 C 214.167969 232.097656 214.859375 231.027344 215.761719 229.238281 C 218.535156 225.242188 219.402344 219.222656 218.363281 211.183594 C 224.507812 205.011719 228.746094 198.375 231.078125 191.269531 C 231.328125 180.535156 232.097656 173.855469 233.386719 171.226562 L 239.734375 161.28125 C 247.222656 155.441406 253.3125 148.277344 258.003906 139.78125 L 270.648438 103.628906 C 270.792969 100.375 268.398438 100.21875 263.472656 103.160156 C 260.894531 106.890625 255.96875 112.046875 248.695312 118.628906 C 251.578125 113.9375 255.3125 109.605469 259.894531 105.636719 L 271.582031 81.082031 C 275.285156 76.953125 279.71875 70.136719 284.886719 60.632812 L 294.167969 49.042969 C 297.238281 43.648438 295.40625 40.957031 288.671875 40.976562 Z M 223.515625 117.203125 L 223.503906 117.203125 C 223.402344 117.222656 223.304688 117.246094 223.210938 117.28125 C 223.21875 117.28125 223.246094 117.292969 223.292969 117.308594 C 223.335938 117.328125 223.359375 117.335938 223.363281 117.339844 C 223.394531 117.3125 223.449219 117.265625 223.523438 117.203125 L 223.515625 117.203125 M 207.246094 153.308594 L 207.152344 153.347656 C 207.152344 153.347656 207.15625 153.347656 207.15625 153.351562 C 207.082031 153.4375 207.039062 153.492188 207.027344 153.507812 L 207.027344 153.511719 C 207.082031 153.480469 207.125 153.460938 207.15625 153.449219 L 207.25 153.308594 L 207.246094 153.308594 M 181.308594 186.753906 L 181.25 186.753906 C 181.234375 186.753906 181.214844 186.753906 181.195312 186.757812 L 181.136719 186.761719 C 181.101562 186.765625 181.058594 186.769531 181.003906 186.78125 C 180.972656 186.785156 180.933594 186.792969 180.882812 186.804688 C 180.84375 186.816406 180.8125 186.824219 180.789062 186.832031 L 180.773438 186.835938 L 180.777344 186.835938 C 180.8125 186.828125 180.839844 186.820312 180.859375 186.8125 C 180.902344 186.804688 180.945312 186.796875 180.984375 186.789062 C 181.035156 186.78125 181.082031 186.773438 181.121094 186.769531 C 181.144531 186.769531 181.171875 186.765625 181.199219 186.765625 L 181.25 186.761719 C 181.402344 186.757812 181.554688 186.773438 181.707031 186.808594 C 181.652344 186.792969 181.585938 186.777344 181.511719 186.765625 C 181.492188 186.761719 181.457031 186.757812 181.410156 186.753906 L 181.355469 186.753906 C 181.339844 186.753906 181.324219 186.753906 181.308594 186.753906 M 284.863281 51.769531 L 280.324219 57.261719 L 268.414062 72.992188 L 256.050781 99.835938 C 248.730469 107.390625 242.125 117.285156 236.226562 129.515625 C 228.136719 138.671875 223.875 144.027344 223.449219 145.574219 C 223.476562 147.816406 224.453125 148.523438 226.378906 147.699219 L 238.332031 134.570312 C 240.933594 131.675781 244.746094 128.984375 249.761719 126.492188 C 253.042969 122.308594 256.636719 118.503906 260.550781 115.078125 C 261.621094 114.480469 257.480469 124.253906 248.121094 144.402344 C 237.546875 154.714844 231.226562 161.914062 229.167969 166 C 226.855469 171.128906 225.640625 179.117188 225.53125 189.96875 L 224.207031 193.105469 L 216.59375 204.972656 L 212.671875 209.207031 C 213.390625 216.828125 213.300781 221.5 212.402344 223.226562 L 209.976562 228.089844 C 204.847656 230.238281 201.4375 233.347656 199.75 237.417969 C 198.871094 240.167969 199.363281 244.855469 201.226562 251.480469 C 200.847656 255.691406 200.507812 258.054688 200.207031 258.574219 C 192.324219 265.730469 187.015625 272.832031 184.277344 279.878906 L 171.800781 282.84375 C 171.175781 282.71875 167.777344 286.140625 161.605469 293.101562 L 152.847656 293.398438 C 146.6875 299.074219 143.152344 302.046875 142.246094 302.316406 C 142.042969 303.09375 139.988281 303.167969 136.078125 302.539062 C 134.851562 302.453125 130.386719 300.707031 122.6875 297.304688 C 117.308594 297.628906 113.683594 297.414062 111.8125 296.65625 L 97.734375 289.722656 C 94.726562 286.105469 89.746094 282.925781 82.785156 280.191406 C 80.578125 278.246094 78.824219 276.335938 77.515625 274.464844 L 74.957031 255.304688 C 65.367188 241.902344 60.566406 229.113281 60.542969 216.941406 C 60.886719 213.882812 62.148438 209.710938 64.332031 204.421875 L 73.667969 193.390625 C 74.480469 193.167969 75.121094 192.753906 75.597656 192.140625 L 78.816406 186.996094 L 86.476562 156.03125 L 91.203125 153.796875 C 104.445312 153.964844 111.191406 153.269531 111.441406 151.714844 C 114.988281 149.71875 116.867188 148.53125 117.070312 148.15625 C 120.730469 143.296875 122.855469 139.9375 123.449219 138.082031 C 124.050781 137.5625 125.066406 136.929688 126.5 136.179688 C 130.253906 135.722656 137.214844 135.863281 147.386719 136.601562 L 150.660156 135.214844 C 156.421875 131.734375 160.785156 126.773438 163.75 120.324219 C 175.945312 119.191406 181.773438 118.871094 181.238281 119.363281 L 188.148438 117.496094 C 190.921875 116.425781 195.851562 110.332031 202.945312 99.222656 L 212.183594 98.53125 L 220.078125 94.347656 C 222.214844 93.351562 224.46875 90.519531 226.851562 85.855469 L 233.414062 82.082031 C 232.363281 86.617188 234 89.074219 238.324219 89.453125 L 255.453125 74.90625 L 261.503906 71.269531 C 265.410156 65.421875 268.003906 61.785156 269.285156 60.367188 C 277.417969 54.109375 282.609375 51.242188 284.863281 51.769531"/></g></svg>