<svg xmlns="http://www.w3.org/2000/svg" width="375" viewBox="0 0 375 375" height="375" version="1.0"><defs><clipPath id="a"><path d="M 66.058594 178 L 307.886719 178 L 307.886719 317.601562 L 66.058594 317.601562 Z M 66.058594 178"/></clipPath><clipPath id="b"><path d="M 66.003906 227 L 307 227 L 307 271 L 66.003906 271 Z M 66.003906 227"/></clipPath></defs><path fill="#7D9B76" d="M 196.917969 130.207031 C 196.917969 118.527344 196.917969 106.84375 196.917969 95.164062 C 196.917969 87.957031 189.003906 86.835938 183.410156 87.878906 C 179.070312 88.6875 177.199219 92.011719 177.199219 96.144531 C 177.199219 103.386719 177.199219 110.628906 177.199219 117.871094 C 177.199219 121.984375 177.199219 126.097656 177.199219 130.207031 C 177.199219 132.363281 178.996094 134.160156 181.152344 134.160156 C 185.085938 134.160156 189.027344 134.160156 192.964844 134.160156 C 198.0625 134.160156 198.0625 126.253906 192.964844 126.253906 C 189.027344 126.253906 185.085938 126.253906 181.152344 126.253906 C 182.46875 127.574219 183.785156 128.890625 185.101562 130.207031 C 185.101562 118.527344 185.101562 106.84375 185.101562 95.164062 C 185.101562 94.839844 184.769531 95.613281 184.414062 95.75 C 184.871094 95.570312 185.210938 95.558594 185.703125 95.523438 C 186.820312 95.445312 188.070312 95.402344 189.171875 95.605469 C 190.238281 95.804688 189.230469 95.597656 188.996094 94.984375 C 189.015625 95.035156 189.011719 95.136719 189.011719 95.203125 C 189.011719 95.457031 189.011719 95.710938 189.011719 95.964844 C 189.011719 98.828125 189.011719 101.695312 189.011719 104.5625 C 189.011719 112.308594 189.011719 120.058594 189.011719 127.804688 C 189.011719 128.605469 189.011719 129.40625 189.011719 130.207031 C 189.011719 135.304688 196.917969 135.304688 196.917969 130.207031"/><path fill="#7D9B76" d="M 184.160156 61.21875 C 181.097656 64.664062 178.492188 68.632812 176.914062 72.976562 C 175.804688 76.035156 175.828125 79.292969 177.253906 82.226562 C 178.890625 85.597656 184.019531 88.015625 187.632812 87.535156 C 191.332031 87.046875 195.03125 85.675781 196.9375 82.238281 C 198.480469 79.445312 198.164062 76.039062 197.167969 73.128906 C 195.664062 68.734375 192.824219 64.664062 189.75 61.21875 C 186.347656 57.410156 180.777344 63.019531 184.160156 66.808594 C 185.839844 68.6875 187.109375 70.457031 188.671875 73.339844 C 189.203125 74.324219 189.398438 74.796875 189.6875 75.636719 C 190.144531 76.976562 190.136719 76.953125 190.105469 78.140625 C 190.125 77.324219 190.035156 78.355469 189.984375 78.523438 C 190.082031 78.1875 190.082031 78.402344 189.855469 78.648438 C 189.433594 79.109375 188.289062 79.433594 187.214844 79.664062 C 186.773438 79.757812 185.378906 79.277344 184.632812 78.851562 C 184.007812 78.492188 184.1875 78.527344 184.066406 78.140625 C 183.996094 77.917969 183.996094 77.109375 184.070312 76.734375 C 184.265625 75.707031 184.710938 74.578125 185.003906 73.949219 C 185.90625 72.035156 187.09375 70.246094 188.34375 68.539062 C 188.425781 68.429688 189.136719 67.507812 188.523438 68.296875 C 188.734375 68.027344 188.949219 67.761719 189.164062 67.496094 C 189.355469 67.265625 189.550781 67.035156 189.75 66.808594 C 193.125 63.015625 187.554688 57.402344 184.160156 61.21875"/><path fill="#7D9B76" d="M 235.769531 130.207031 C 235.769531 118.527344 235.769531 106.84375 235.769531 95.164062 C 235.769531 87.957031 227.855469 86.835938 222.257812 87.878906 C 217.921875 88.6875 216.046875 92.011719 216.046875 96.144531 C 216.046875 103.386719 216.046875 110.628906 216.046875 117.871094 C 216.046875 121.984375 216.046875 126.097656 216.046875 130.207031 C 216.046875 132.363281 217.84375 134.160156 220 134.160156 C 223.9375 134.160156 227.878906 134.160156 231.816406 134.160156 C 236.914062 134.160156 236.914062 126.253906 231.816406 126.253906 C 227.878906 126.253906 223.9375 126.253906 220 126.253906 C 221.316406 127.574219 222.636719 128.890625 223.953125 130.207031 C 223.953125 118.527344 223.953125 106.84375 223.953125 95.164062 C 223.953125 94.839844 223.617188 95.613281 223.265625 95.75 C 223.726562 95.570312 224.058594 95.558594 224.554688 95.523438 C 225.671875 95.445312 226.925781 95.402344 228.023438 95.605469 C 229.089844 95.804688 228.082031 95.597656 227.847656 94.984375 C 227.867188 95.035156 227.863281 95.136719 227.863281 95.203125 C 227.863281 95.457031 227.863281 95.710938 227.863281 95.964844 C 227.863281 98.828125 227.863281 101.695312 227.863281 104.5625 C 227.863281 112.308594 227.863281 120.058594 227.863281 127.804688 C 227.863281 128.605469 227.863281 129.40625 227.863281 130.207031 C 227.863281 135.304688 235.769531 135.304688 235.769531 130.207031"/><path fill="#7D9B76" d="M 223.011719 61.21875 C 219.949219 64.664062 217.34375 68.632812 215.765625 72.976562 C 214.65625 76.035156 214.679688 79.292969 216.105469 82.226562 C 217.742188 85.597656 222.871094 88.015625 226.480469 87.535156 C 230.183594 87.046875 233.882812 85.675781 235.785156 82.238281 C 237.332031 79.445312 237.015625 76.039062 236.019531 73.128906 C 234.515625 68.734375 231.675781 64.664062 228.601562 61.21875 C 225.199219 57.410156 219.628906 63.019531 223.011719 66.808594 C 224.691406 68.6875 225.960938 70.457031 227.523438 73.339844 C 228.054688 74.324219 228.25 74.796875 228.535156 75.636719 C 228.996094 76.976562 228.988281 76.953125 228.957031 78.140625 C 228.976562 77.324219 228.886719 78.355469 228.835938 78.523438 C 228.933594 78.1875 228.933594 78.402344 228.707031 78.648438 C 228.285156 79.109375 227.140625 79.433594 226.066406 79.664062 C 225.625 79.757812 224.230469 79.277344 223.484375 78.851562 C 222.859375 78.492188 223.039062 78.527344 222.917969 78.140625 C 222.847656 77.917969 222.847656 77.109375 222.917969 76.734375 C 223.117188 75.707031 223.5625 74.578125 223.855469 73.949219 C 224.757812 72.035156 225.945312 70.246094 227.195312 68.539062 C 227.277344 68.429688 227.988281 67.507812 227.375 68.296875 C 227.585938 68.027344 227.796875 67.761719 228.015625 67.496094 C 228.207031 67.265625 228.402344 67.035156 228.601562 66.808594 C 231.976562 63.015625 226.40625 57.402344 223.011719 61.21875"/><path fill="#7D9B76" d="M 156.953125 130.207031 C 156.953125 118.527344 156.953125 106.84375 156.953125 95.164062 C 156.953125 87.957031 149.039062 86.835938 143.449219 87.878906 C 139.109375 88.6875 137.234375 92.011719 137.234375 96.144531 C 137.234375 103.386719 137.234375 110.628906 137.234375 117.871094 C 137.234375 121.984375 137.234375 126.097656 137.234375 130.207031 C 137.234375 132.363281 139.035156 134.160156 141.1875 134.160156 C 145.125 134.160156 149.0625 134.160156 153 134.160156 C 158.101562 134.160156 158.101562 126.253906 153 126.253906 C 149.0625 126.253906 145.125 126.253906 141.1875 126.253906 C 142.503906 127.574219 143.824219 128.890625 145.140625 130.207031 C 145.140625 118.527344 145.140625 106.84375 145.140625 95.164062 C 145.140625 94.839844 144.804688 95.613281 144.453125 95.75 C 144.910156 95.570312 145.25 95.558594 145.742188 95.523438 C 146.859375 95.445312 148.109375 95.402344 149.210938 95.605469 C 150.277344 95.804688 149.269531 95.597656 149.035156 94.984375 C 149.054688 95.035156 149.050781 95.136719 149.050781 95.203125 C 149.050781 95.457031 149.050781 95.710938 149.050781 95.964844 C 149.050781 98.828125 149.050781 101.695312 149.050781 104.5625 C 149.050781 112.308594 149.050781 120.058594 149.050781 127.804688 C 149.050781 128.605469 149.050781 129.40625 149.050781 130.207031 C 149.050781 135.304688 156.953125 135.304688 156.953125 130.207031"/><path fill="#7D9B76" d="M 144.199219 61.21875 C 141.132812 64.664062 138.53125 68.632812 136.953125 72.976562 C 135.839844 76.035156 135.867188 79.292969 137.292969 82.226562 C 138.925781 85.597656 144.058594 88.015625 147.671875 87.535156 C 151.371094 87.046875 155.070312 85.675781 156.972656 82.238281 C 158.519531 79.445312 158.203125 76.039062 157.207031 73.128906 C 155.703125 68.734375 152.863281 64.664062 149.789062 61.21875 C 146.386719 57.410156 140.816406 63.019531 144.199219 66.808594 C 145.875 68.6875 147.148438 70.457031 148.710938 73.339844 C 149.242188 74.324219 149.4375 74.796875 149.722656 75.636719 C 150.179688 76.976562 150.175781 76.953125 150.140625 78.140625 C 150.164062 77.324219 150.074219 78.355469 150.023438 78.523438 C 150.121094 78.1875 150.121094 78.402344 149.894531 78.648438 C 149.472656 79.109375 148.328125 79.433594 147.253906 79.664062 C 146.8125 79.757812 145.414062 79.277344 144.671875 78.851562 C 144.042969 78.492188 144.226562 78.527344 144.105469 78.140625 C 144.035156 77.917969 144.035156 77.109375 144.105469 76.734375 C 144.304688 75.707031 144.75 74.578125 145.042969 73.949219 C 145.945312 72.035156 147.132812 70.246094 148.382812 68.539062 C 148.460938 68.429688 149.175781 67.507812 148.5625 68.296875 C 148.769531 68.027344 148.984375 67.761719 149.203125 67.496094 C 149.394531 67.265625 149.589844 67.035156 149.789062 66.808594 C 153.164062 63.015625 147.59375 57.402344 144.199219 61.21875"/><g clip-path="url(#a)"><path fill="#7D9B76" d="M 95.03125 178.773438 C 83.917969 183.636719 71.257812 190.808594 67.132812 203.015625 C 65.6875 207.296875 66.222656 212.441406 66.222656 216.894531 C 66.222656 232.605469 66.222656 248.316406 66.222656 264.027344 C 66.222656 268.050781 65.902344 272.265625 66.769531 276.222656 C 68.417969 283.730469 74.5 289.472656 80.472656 293.792969 C 88.867188 299.867188 98.894531 303.761719 108.699219 306.886719 C 121.640625 311.011719 135.066406 313.460938 148.519531 315.164062 C 179.167969 319.046875 210.757812 318.304688 241.164062 312.800781 C 253.367188 310.589844 265.5 307.449219 276.972656 302.679688 C 285.503906 299.136719 294.058594 294.6875 300.53125 287.953125 C 304.863281 283.453125 307.886719 277.730469 307.886719 271.386719 C 307.886719 266.46875 307.886719 261.546875 307.886719 256.625 C 307.886719 241.585938 307.886719 226.542969 307.886719 211.5 C 307.886719 206.648438 307.195312 202.210938 304.660156 197.917969 C 299.191406 188.675781 288.582031 182.929688 279.082031 178.773438 C 277.105469 177.910156 274.855469 178.171875 273.671875 180.191406 C 272.679688 181.886719 273.113281 184.738281 275.089844 185.601562 C 281.449219 188.382812 287.765625 191.644531 292.984375 196.285156 C 296.3125 199.246094 299.535156 203.195312 299.945312 207.804688 C 300.300781 211.824219 299.984375 215.988281 299.984375 220.011719 C 299.984375 235.566406 299.984375 251.117188 299.984375 266.671875 C 299.984375 268.269531 299.984375 269.863281 299.984375 271.460938 C 299.984375 273.398438 299.503906 275.402344 298.769531 276.9375 C 295.664062 283.457031 288.804688 287.988281 282.234375 291.53125 C 272.253906 296.914062 261.195312 300.238281 250.207031 302.851562 C 236.140625 306.199219 221.753906 308.035156 207.335938 308.960938 C 177.527344 310.875 146.839844 309.074219 117.902344 301.339844 C 107.507812 298.558594 97.191406 294.914062 87.976562 289.292969 C 84.59375 287.234375 81.582031 284.941406 78.871094 282.042969 C 76.90625 279.945312 75.285156 277.296875 74.566406 274.8125 C 74.101562 273.199219 74.128906 272.539062 74.128906 270.578125 C 74.128906 268.394531 74.128906 266.210938 74.128906 264.027344 C 74.128906 256.199219 74.128906 248.371094 74.128906 240.542969 C 74.128906 232.660156 74.128906 224.777344 74.128906 216.894531 C 74.128906 212.652344 73.621094 208.101562 75.128906 204.066406 C 76.601562 200.128906 80.183594 196.953125 83.363281 194.402344 C 88.003906 190.671875 93.597656 187.972656 99.019531 185.601562 C 100.996094 184.738281 101.433594 181.886719 100.441406 180.191406 C 99.257812 178.171875 97.007812 177.910156 95.03125 178.773438"/></g><path fill="#7D9B76" d="M 178.050781 98.6875 C 173.503906 98.933594 168.984375 99.410156 164.457031 99.910156 C 162.316406 100.144531 160.503906 101.527344 160.503906 103.863281 C 160.503906 105.835938 162.3125 108.050781 164.457031 107.816406 C 168.984375 107.316406 173.503906 106.839844 178.050781 106.589844 C 183.121094 106.316406 183.148438 98.40625 178.050781 98.6875"/><path fill="#7D9B76" d="M 207.980469 99.730469 C 202.980469 99.214844 197.988281 98.734375 192.964844 98.5625 C 187.863281 98.386719 187.878906 106.289062 192.964844 106.46875 C 197.988281 106.640625 202.980469 107.121094 207.980469 107.632812 C 210.125 107.855469 211.929688 105.671875 211.929688 103.683594 C 211.929688 101.363281 210.121094 99.949219 207.980469 99.730469"/><path fill="#7D9B76" d="M 128.503906 106.082031 C 116.839844 109.621094 103.320312 114.691406 96.222656 125.265625 C 92.949219 130.140625 93.34375 135.617188 93.34375 141.164062 C 93.34375 154.953125 93.34375 168.742188 93.34375 182.535156 C 93.34375 189.433594 97.636719 195.101562 102.878906 199.179688 C 111.398438 205.808594 121.9375 209.570312 132.253906 212.367188 C 161.316406 220.25 192.964844 220.667969 222.613281 216.304688 C 235.171875 214.457031 247.632812 211.417969 259.257812 206.25 C 266.773438 202.910156 275.074219 197.976562 278.898438 190.351562 C 281.148438 185.859375 280.769531 181.078125 280.769531 176.222656 C 280.769531 168.136719 280.769531 160.046875 280.769531 151.960938 C 280.769531 147.5625 280.769531 143.160156 280.769531 138.761719 C 280.769531 136.21875 280.851562 133.738281 280.402344 131.222656 C 279.308594 125.097656 274.25 120.378906 269.484375 116.882812 C 262.402344 111.691406 253.738281 108.53125 245.40625 106.019531 C 240.511719 104.546875 238.4375 112.175781 243.304688 113.644531 C 250.023438 115.667969 256.574219 118.15625 262.601562 121.789062 C 266.226562 123.976562 270.472656 127.15625 272.105469 131.054688 C 273.679688 134.824219 272.867188 140.492188 272.867188 144.824219 C 272.867188 153.160156 272.867188 161.496094 272.867188 169.832031 C 272.867188 174.472656 273.167969 179.226562 272.816406 183.863281 C 272.875 183.085938 272.582031 184.898438 272.480469 185.253906 C 272.378906 185.601562 272.25 185.941406 272.121094 186.28125 C 272.414062 185.511719 271.933594 186.636719 271.902344 186.699219 C 271.023438 188.453125 270.410156 189.152344 269.144531 190.488281 C 266.308594 193.492188 262.761719 195.644531 259.105469 197.570312 C 248.53125 203.148438 236.457031 205.964844 224.765625 208 C 209.445312 210.667969 193.761719 211.363281 178.238281 210.851562 C 163.710938 210.375 149.179688 208.601562 135.097656 204.941406 C 125.507812 202.453125 115.050781 199.03125 107.324219 192.675781 C 105.945312 191.539062 104.683594 190.265625 103.550781 188.878906 C 103.078125 188.296875 101.9375 186.160156 101.742188 185.597656 C 101.085938 183.710938 101.25 183.335938 101.25 181.214844 C 101.25 166.863281 101.25 152.511719 101.25 138.160156 C 101.25 134.277344 101.136719 131.535156 103.710938 128.3125 C 110.050781 120.367188 121.257812 116.542969 130.605469 113.707031 C 135.46875 112.230469 133.394531 104.597656 128.503906 106.082031"/><path fill="#7D9B76" d="M 163.507812 168.019531 C 190.433594 170.578125 218.664062 169.320312 244.757812 161.78125 C 253.722656 159.191406 262.9375 155.699219 270.433594 150.023438 C 275.921875 145.867188 280.664062 140.234375 280.769531 133.027344 C 280.847656 127.925781 272.941406 127.933594 272.867188 133.027344 C 272.835938 134.960938 272.222656 136.6875 270.679688 138.921875 C 269.441406 140.730469 266.640625 143.136719 264.375 144.683594 C 257 149.71875 248.304688 152.652344 239.757812 154.96875 C 215.167969 161.636719 188.757812 162.511719 163.507812 160.113281 C 158.429688 159.628906 158.476562 167.539062 163.507812 168.019531"/><path fill="#7D9B76" d="M 140.164062 164.488281 C 144.0625 165.3125 147.984375 166.007812 151.925781 166.59375 C 154.054688 166.914062 156.167969 166.097656 156.789062 163.835938 C 157.308594 161.949219 156.164062 159.292969 154.027344 158.972656 C 150.085938 158.382812 146.164062 157.6875 142.265625 156.867188 C 137.289062 155.820312 135.175781 163.4375 140.164062 164.488281"/><path fill="#7D9B76" d="M 93.34375 133.027344 C 93.660156 148.140625 111.835938 155.839844 123.796875 160.019531 C 128.621094 161.707031 130.679688 154.066406 125.898438 152.398438 C 119.558594 150.179688 113.070312 147.460938 107.761719 143.257812 C 104.519531 140.691406 101.335938 137.144531 101.25 133.027344 C 101.140625 127.933594 93.234375 127.925781 93.34375 133.027344"/><g clip-path="url(#b)"><path fill="#7D9B76" d="M 66.058594 231.332031 C 66.019531 235.3125 67.226562 239.453125 69.082031 242.941406 C 73.078125 250.449219 81.265625 253.527344 89.417969 253.222656 C 96.195312 252.972656 102.605469 250.414062 109.316406 249.636719 C 114.242188 249.070312 119.25 249.148438 124.027344 250.558594 C 129.082031 252.050781 131.714844 254.835938 135.800781 258.503906 C 141.777344 263.863281 148.074219 268.492188 156.230469 269.75 C 162.464844 270.714844 168.695312 269.742188 174.546875 267.46875 C 178.191406 266.054688 181.5 264.039062 184.992188 262.320312 C 188.433594 260.625 192.125 259.457031 195.863281 258.625 C 201.164062 257.453125 206.789062 257.441406 212.117188 258.457031 C 214.066406 258.832031 215.984375 259.367188 217.867188 259.992188 C 218.609375 260.242188 219.347656 260.519531 220.078125 260.808594 C 220.210938 260.859375 221.277344 261.308594 220.347656 260.910156 C 220.679688 261.054688 221.007812 261.203125 221.339844 261.351562 C 226.484375 263.675781 231.390625 266.210938 237 267.296875 C 243.855469 268.628906 250.644531 267.90625 256.988281 264.980469 C 260.828125 263.207031 264.203125 260.339844 267.03125 257.230469 C 270.257812 253.675781 272.753906 249.683594 276.683594 246.78125 C 281.453125 243.261719 287.726562 241.660156 293.117188 242.492188 C 295.179688 242.8125 297.199219 243.40625 299.136719 244.175781 C 298.078125 243.753906 299.6875 244.4375 300.003906 244.597656 C 300.21875 244.707031 300.433594 244.820312 300.640625 244.941406 C 305.039062 247.550781 309.011719 240.714844 304.632812 238.117188 C 299.742188 235.214844 293.449219 234.070312 287.847656 234.457031 C 282.371094 234.839844 277.171875 236.816406 272.691406 239.957031 C 266.804688 244.089844 263.394531 250.335938 258.042969 254.96875 C 250.828125 261.214844 241.148438 260.960938 232.667969 257.878906 C 231.179688 257.339844 230.804688 257.160156 229.183594 256.382812 C 228.355469 255.984375 227.546875 255.542969 226.714844 255.15625 C 224.375 254.066406 222 253.046875 219.554688 252.230469 C 208.460938 248.53125 196.261719 249.324219 185.449219 253.546875 C 178.40625 256.300781 172.386719 260.695312 164.800781 262.015625 C 160.292969 262.800781 155.402344 262.007812 151.277344 260.078125 C 146.1875 257.695312 142.582031 254.082031 138.410156 250.1875 C 132.738281 244.890625 125.949219 242.210938 118.242188 241.539062 C 109.878906 240.8125 101.921875 243.097656 93.832031 244.769531 C 88.574219 245.851562 83.097656 245.65625 78.917969 242.675781 C 76.886719 241.226562 75.355469 238.304688 74.601562 235.582031 C 74.414062 234.917969 74.269531 234.238281 74.148438 233.558594 C 73.90625 232.21875 74.179688 234.203125 74.039062 232.78125 C 73.992188 232.300781 73.957031 231.8125 73.964844 231.332031 C 74.011719 226.230469 66.109375 226.234375 66.058594 231.332031"/></g></svg>