<svg xmlns="http://www.w3.org/2000/svg" width="375" viewBox="0 0 375 375" height="375" version="1.0"><defs><clipPath id="a"><path d="M 24 62.925781 L 351 62.925781 L 351 311.925781 L 24 311.925781 Z M 24 62.925781"/></clipPath></defs><path fill="#7D9B76" d="M 263.042969 195.277344 C 243.78125 195.277344 228.054688 179.570312 228.054688 160.324219 C 228.054688 141.078125 243.78125 125.371094 263.042969 125.371094 C 282.304688 125.371094 298.03125 141.078125 298.03125 160.324219 C 298.03125 179.570312 282.304688 195.277344 263.042969 195.277344 Z M 263.042969 133.226562 C 248.105469 133.226562 235.917969 145.398438 235.917969 160.324219 C 235.917969 175.25 248.105469 187.425781 263.042969 187.425781 C 277.980469 187.425781 290.167969 175.25 290.167969 160.324219 C 290.167969 145.398438 277.980469 133.226562 263.042969 133.226562 Z M 263.042969 133.226562"/><path fill="#7D9B76" d="M 327.121094 245.15625 L 300.78125 198.027344 C 303.535156 197.242188 306.285156 196.0625 308.253906 193.316406 C 310.609375 189.78125 310.609375 185.460938 310.21875 181.53125 C 310.21875 179.175781 309.824219 177.210938 310.21875 175.640625 C 310.609375 174.464844 312.183594 172.5 313.363281 170.929688 C 315.722656 167.785156 318.867188 164.644531 318.867188 159.933594 C 318.867188 155.21875 316.113281 152.078125 313.363281 148.933594 C 312.183594 147.363281 310.609375 145.792969 310.21875 144.222656 C 309.824219 142.652344 309.824219 140.6875 310.21875 138.332031 C 310.609375 134.402344 310.609375 130.082031 308.253906 126.546875 C 305.5 123.015625 301.570312 121.835938 297.636719 121.050781 C 295.671875 120.65625 293.3125 119.871094 292.132812 119.085938 C 290.953125 118.300781 289.777344 116.335938 288.597656 114.375 C 286.628906 111.230469 284.273438 107.304688 279.949219 106.125 C 276.015625 104.949219 272.085938 106.519531 268.546875 107.695312 C 266.582031 108.480469 264.222656 109.269531 262.648438 109.269531 C 261.078125 109.269531 259.113281 108.480469 256.753906 107.695312 C 253.214844 106.125 249.285156 104.554688 245.351562 106.125 C 241.027344 107.304688 238.667969 111.230469 236.703125 114.375 C 235.523438 116.335938 234.34375 117.90625 233.167969 119.085938 C 231.988281 119.871094 229.628906 120.65625 227.664062 121.050781 C 223.730469 121.835938 219.800781 123.015625 217.046875 126.546875 C 214.6875 130.082031 214.6875 134.402344 215.082031 138.332031 C 215.082031 140.6875 215.476562 142.652344 215.082031 144.222656 C 214.6875 145.398438 213.117188 147.363281 211.9375 148.933594 C 209.578125 152.078125 206.433594 155.21875 206.433594 159.933594 C 206.433594 164.253906 209.1875 167.785156 211.9375 170.929688 C 213.117188 172.5 214.6875 174.070312 215.082031 175.640625 C 215.476562 177.210938 215.476562 179.175781 215.082031 181.53125 C 214.6875 185.460938 214.6875 189.78125 217.046875 193.316406 C 219.40625 196.457031 222.945312 197.636719 226.484375 198.421875 L 200.535156 245.15625 C 199.75 246.335938 199.75 247.90625 200.535156 249.085938 C 201.324219 250.261719 202.503906 251.046875 204.074219 251.046875 L 220.980469 249.871094 L 228.839844 264.792969 C 229.628906 265.972656 230.808594 266.757812 232.378906 266.757812 C 233.953125 266.757812 235.132812 265.972656 235.917969 264.792969 L 264.222656 214.917969 L 291.742188 264.402344 C 292.527344 265.578125 293.707031 266.367188 295.277344 266.367188 C 296.851562 266.367188 298.03125 265.578125 298.816406 264.402344 L 306.679688 249.476562 L 323.582031 250.65625 C 325.15625 250.65625 326.335938 249.871094 327.121094 248.691406 C 327.90625 247.90625 327.90625 246.335938 327.121094 245.15625 Z M 223.339844 181.925781 C 223.339844 179.175781 223.730469 176.035156 222.945312 173.285156 C 222.160156 170.535156 220.191406 168.179688 218.226562 166.214844 C 216.65625 164.253906 214.6875 161.894531 214.6875 160.324219 C 214.6875 158.753906 216.65625 156.398438 218.226562 154.433594 C 220.191406 152.078125 222.160156 150.113281 222.945312 147.363281 C 223.730469 144.613281 223.730469 141.472656 223.339844 138.722656 C 223.339844 135.972656 222.945312 133.226562 223.730469 132.046875 C 224.515625 130.867188 227.269531 130.082031 229.628906 129.691406 C 232.378906 128.90625 235.523438 128.121094 237.882812 126.546875 C 240.242188 124.976562 241.816406 122.226562 243.386719 119.871094 C 244.960938 117.515625 246.140625 115.160156 247.710938 114.765625 C 248.105469 114.765625 248.105469 114.765625 248.496094 114.765625 C 250.070312 114.765625 252.035156 115.550781 254 116.335938 C 256.753906 117.515625 259.503906 118.695312 262.648438 118.695312 C 265.796875 118.695312 268.546875 117.515625 271.296875 116.335938 C 273.65625 115.550781 276.015625 114.375 277.589844 114.765625 C 279.160156 115.160156 280.339844 117.515625 281.914062 119.871094 C 283.484375 122.226562 285.058594 124.976562 287.417969 126.546875 C 289.773438 128.121094 292.921875 128.90625 295.671875 129.691406 C 298.425781 130.476562 300.78125 130.867188 301.570312 132.046875 C 302.355469 133.226562 302.355469 135.972656 301.960938 138.722656 C 301.960938 141.472656 301.570312 144.613281 302.355469 147.363281 C 303.140625 150.113281 305.105469 152.46875 307.074219 154.433594 C 308.644531 156.398438 310.609375 158.753906 310.609375 160.324219 C 310.609375 161.894531 308.644531 164.253906 307.074219 166.214844 C 305.105469 168.570312 303.140625 170.535156 302.355469 173.285156 C 301.570312 176.035156 301.570312 179.175781 301.960938 181.925781 C 301.960938 184.675781 302.355469 187.425781 301.570312 188.601562 C 300.78125 189.78125 298.03125 190.566406 295.671875 190.957031 C 292.921875 191.742188 289.773438 192.53125 287.417969 194.101562 C 285.058594 195.671875 283.484375 198.421875 281.914062 200.777344 C 280.339844 203.132812 279.160156 205.488281 277.589844 205.882812 C 276.410156 206.277344 273.65625 205.097656 271.296875 204.3125 C 269.332031 203.527344 266.972656 202.742188 265.007812 202.347656 C 264.222656 202.347656 263.4375 201.957031 262.648438 201.957031 C 259.503906 201.957031 256.753906 203.132812 254 204.3125 C 251.644531 205.097656 249.285156 206.277344 247.710938 205.882812 C 246.140625 205.488281 244.960938 203.132812 243.386719 200.777344 C 241.816406 198.421875 240.242188 195.671875 237.882812 194.101562 C 235.523438 192.53125 232.378906 191.742188 229.628906 190.957031 C 226.875 190.171875 224.515625 189.78125 223.730469 188.601562 C 222.945312 187.425781 223.339844 184.675781 223.339844 181.925781 Z M 233.167969 254.582031 L 227.269531 243.980469 C 226.484375 242.800781 224.910156 242.015625 223.730469 242.015625 L 211.542969 242.40625 L 234.34375 201.171875 C 235.132812 201.957031 236.3125 203.527344 237.097656 205.097656 C 239.0625 208.238281 241.421875 212.167969 245.746094 213.34375 C 246.925781 213.738281 247.710938 213.738281 248.890625 213.738281 C 251.644531 213.738281 254.789062 212.558594 257.144531 211.382812 Z M 304.714844 241.621094 C 303.140625 241.621094 301.570312 242.40625 301.175781 243.585938 L 295.277344 254.191406 L 272.476562 212.953125 C 274.835938 213.738281 277.589844 214.128906 280.339844 213.34375 C 284.664062 212.167969 287.023438 208.238281 288.988281 205.097656 C 290.167969 203.132812 291.347656 201.5625 292.527344 200.382812 C 292.921875 199.992188 293.3125 199.992188 293.707031 199.992188 L 317.292969 242.40625 Z M 304.714844 241.621094"/><g clip-path="url(#a)"><path fill="#7D9B76" d="M 333.804688 311.925781 L 41.324219 311.925781 C 31.886719 311.925781 24.417969 304.460938 24.417969 295.035156 L 24.417969 79.8125 C 24.417969 70.386719 31.886719 62.925781 41.324219 62.925781 L 333.804688 62.925781 C 343.238281 62.925781 350.710938 70.386719 350.710938 79.8125 L 350.710938 295.035156 C 350.710938 304.070312 342.847656 311.925781 333.804688 311.925781 Z M 41.324219 70.777344 C 36.210938 70.777344 32.28125 74.707031 32.28125 79.8125 L 32.28125 295.035156 C 32.28125 300.140625 36.210938 304.070312 41.324219 304.070312 L 333.804688 304.070312 C 338.914062 304.070312 342.847656 300.140625 342.847656 295.035156 L 342.847656 79.8125 C 342.847656 74.707031 338.914062 70.777344 333.804688 70.777344 Z M 41.324219 70.777344"/></g><path fill="#7D9B76" d="M 320.046875 295.429688 L 56.261719 295.429688 C 48.007812 295.429688 41.324219 288.753906 41.324219 280.503906 L 41.324219 94.34375 C 41.324219 86.097656 48.007812 79.417969 56.261719 79.417969 L 320.046875 79.417969 C 328.300781 79.417969 334.984375 86.097656 334.984375 94.34375 L 334.984375 280.503906 C 334.984375 288.753906 328.300781 295.429688 320.046875 295.429688 Z M 56.261719 83.347656 C 50.363281 83.347656 45.253906 88.453125 45.253906 94.34375 L 45.253906 280.503906 C 45.253906 286.394531 50.363281 291.5 56.261719 291.5 L 320.046875 291.5 C 325.941406 291.5 331.054688 286.394531 331.054688 280.503906 L 331.054688 94.34375 C 331.054688 88.453125 325.941406 83.347656 320.046875 83.347656 Z M 56.261719 83.347656"/><path fill="#7D9B76" d="M 197.390625 121.441406 L 70.019531 121.441406 C 67.664062 121.441406 66.089844 119.871094 66.089844 117.515625 C 66.089844 115.160156 67.664062 113.589844 70.019531 113.589844 L 197 113.589844 C 199.359375 113.589844 200.929688 115.160156 200.929688 117.515625 C 200.929688 119.871094 199.359375 121.441406 197.390625 121.441406 Z M 197.390625 121.441406"/><path fill="#7D9B76" d="M 182.847656 219.628906 L 70.019531 219.628906 C 67.664062 219.628906 66.089844 218.058594 66.089844 215.703125 C 66.089844 213.34375 67.664062 211.773438 70.019531 211.773438 L 182.847656 211.773438 C 185.207031 211.773438 186.777344 213.34375 186.777344 215.703125 C 186.777344 218.058594 185.207031 219.628906 182.847656 219.628906 Z M 182.847656 219.628906"/><path fill="#7D9B76" d="M 182.847656 174.464844 L 70.019531 174.464844 C 67.664062 174.464844 66.089844 172.890625 66.089844 170.535156 C 66.089844 168.179688 67.664062 166.609375 70.019531 166.609375 L 182.847656 166.609375 C 185.207031 166.609375 186.777344 168.179688 186.777344 170.535156 C 186.777344 172.890625 185.207031 174.464844 182.847656 174.464844 Z M 182.847656 174.464844"/><path fill="#7D9B76" d="M 129.773438 249.476562 L 70.019531 249.476562 C 67.664062 249.476562 66.089844 247.90625 66.089844 245.550781 C 66.089844 243.195312 67.664062 241.621094 70.019531 241.621094 L 129.773438 241.621094 C 132.132812 241.621094 133.707031 243.195312 133.707031 245.550781 C 133.707031 247.90625 132.132812 249.476562 129.773438 249.476562 Z M 129.773438 249.476562"/></svg>