<svg xmlns="http://www.w3.org/2000/svg" width="375" viewBox="0 0 375 375" height="375" version="1.0"><defs><clipPath id="a"><path d="M 38 41.734375 L 329.902344 41.734375 L 329.902344 321 L 38 321 Z M 38 41.734375"/></clipPath><clipPath id="b"><path d="M 37.617188 53.195312 L 327 53.195312 L 327 328.230469 L 37.617188 328.230469 Z M 37.617188 53.195312"/></clipPath></defs><g clip-path="url(#a)"><path fill="#7D9B76" d="M 250.085938 41.953125 C 283.570312 40.921875 303.238281 43.042969 319.925781 58.917969 C 324.972656 63.730469 328.296875 68.371094 329.902344 70.894531 C 311.324219 64.535156 301.347656 67.628906 295.898438 70.894531 C 273.996094 84.078125 281.621094 126.542969 279.902344 226.726562 C 278.871094 287.988281 275.488281 302.316406 263.902344 312.632812 C 254.214844 321.289062 245.097656 321.402344 177.949219 320.597656 C 114.472656 319.914062 82.363281 319.226562 64.011719 304.609375 C 49.792969 293.265625 42.222656 278.992188 38.035156 268.621094 C 58.679688 275.839844 69.746094 272.6875 75.996094 268.621094 C 92.339844 258.019531 91.480469 230.796875 89.988281 140.757812 C 89.183594 90.210938 89.011719 64.707031 102.03125 52.898438 C 112.695312 43.269531 123.128906 45.277344 163.960938 44.933594 C 185.230469 44.761719 203.464844 43.960938 219.292969 43.269531 M 219.292969 43.269531 C 230.761719 42.753906 240.910156 42.242188 250.085938 41.953125"/></g><g clip-path="url(#b)"><path fill="#F6F6E9" d="M 245.152344 318.136719 C 225.429688 317.964844 205.761719 319.28125 186.089844 320.144531 C 166.828125 321.003906 147.558594 322.492188 128.234375 321.117188 C 110.6875 319.855469 93.085938 316.015625 77.429688 307.761719 C 63.441406 300.371094 52.71875 290.222656 45.777344 276.527344 C 50.824219 279.738281 57.132812 281.113281 63.382812 281.457031 C 77.316406 282.257812 91.59375 280.253906 105.527344 279.566406 C 134.023438 278.132812 162.582031 277.042969 191.136719 276.359375 C 192 276.359375 192.6875 276.011719 193.144531 275.496094 C 197.960938 294.007812 212.007812 309.136719 229.785156 316.132812 C 232.539062 317.21875 233.742188 312.75 230.988281 311.660156 C 214.074219 305.011719 201.34375 291.488281 194.863281 274.578125 C 194.691406 274.121094 194.292969 273.890625 193.890625 273.949219 C 194.175781 272.289062 193.257812 270.394531 191.078125 270.453125 C 164.875 271.140625 138.613281 272.289062 112.464844 274.007812 C 99.566406 274.867188 86.71875 275.953125 73.875 276.871094 C 63.039062 277.675781 51.800781 277.101562 43.082031 270.511719 C 43.082031 270.511719 43.082031 270.511719 43.082031 270.453125 C 42.738281 269.535156 41.878906 268.964844 41.019531 268.734375 C 40.617188 268.335938 40.214844 267.988281 39.8125 267.585938 C 39.070312 266.84375 37.863281 267.816406 38.378906 268.675781 C 38.4375 268.789062 38.496094 268.847656 38.550781 268.964844 C 37.921875 269.363281 37.519531 270.109375 37.636719 271.199219 C 39.355469 284.265625 49.160156 295.5 59.140625 303.523438 C 69.863281 312.175781 82.363281 318.195312 95.492188 322.089844 C 125.828125 331.03125 158.050781 328.335938 189.074219 325.585938 C 207.882812 323.925781 226.746094 322.550781 245.441406 319.855469 C 246.472656 319.796875 246.1875 318.136719 245.152344 318.136719 Z M 236.378906 248.960938 C 234.316406 249.476562 232.136719 249.765625 229.902344 249.765625 C 227.433594 249.765625 225.027344 249.421875 222.789062 248.789062 C 222.675781 254.867188 221.46875 261.113281 220.726562 267.011719 C 220.269531 270.683594 219.808594 274.351562 219.292969 278.019531 C 220.554688 275.324219 221.585938 272.113281 223.996094 270.394531 C 225.257812 269.480469 226.863281 270.28125 227.433594 271.542969 C 229.5 274.808594 232.539062 277.558594 235.0625 280.65625 C 234.890625 274.925781 235.289062 269.136719 235.578125 263.460938 C 235.863281 258.878906 235.636719 253.660156 236.378906 248.960938 Z M 242.574219 246.613281 C 243.375 252.574219 241.65625 259.5625 241.082031 265.351562 C 240.394531 272.058594 239.820312 278.878906 238.101562 285.46875 C 238.214844 285.699219 238.273438 285.925781 238.386719 286.15625 C 239.191406 288.394531 236.265625 290.570312 234.316406 289.253906 C 231.503906 287.304688 229.5 283.863281 227.835938 280.882812 C 227.089844 279.566406 226.230469 278.132812 225.601562 276.644531 C 225.371094 276.988281 225.140625 277.273438 224.855469 277.675781 C 223.996094 278.9375 223.25 280.3125 222.390625 281.570312 C 220.957031 283.808594 219.523438 285.8125 217.457031 287.417969 C 216.484375 289.652344 212.527344 289.023438 212.753906 286.386719 C 213.328125 279.679688 214.707031 273.03125 215.738281 266.382812 C 216.769531 260.136719 217.226562 253.546875 218.890625 247.414062 C 209.488281 243.230469 202.894531 233.773438 202.894531 222.769531 C 202.894531 207.871094 214.992188 195.777344 229.902344 195.777344 C 244.808594 195.777344 256.90625 207.871094 256.90625 222.769531 C 256.964844 233.085938 251.117188 242.082031 242.574219 246.613281 Z M 141.996094 243.460938 C 136.492188 243 130.929688 242.714844 125.367188 242.65625 C 120.492188 242.601562 114.816406 241.566406 110.402344 243.859375 C 108.851562 244.660156 108.738281 247.355469 110.402344 248.160156 C 114.703125 250.164062 119.691406 249.191406 124.394531 249.191406 C 129.957031 249.191406 135.457031 249.304688 141.023438 249.421875 C 152.085938 249.765625 163.097656 250.507812 174.109375 250.855469 C 175.542969 250.910156 175.828125 248.671875 174.449219 248.332031 C 163.84375 245.753906 152.949219 244.375 141.996094 243.460938 Z M 178.636719 205.632812 C 166.652344 205.0625 154.726562 204.773438 142.742188 204.488281 C 137.066406 204.375 131.445312 204.199219 125.769531 204.027344 C 120.035156 203.859375 113.726562 202.769531 108.164062 204.027344 C 105.585938 204.601562 105.871094 208.269531 108.164062 208.957031 C 113.328125 210.503906 119.460938 209.875 124.792969 209.988281 C 130.757812 210.105469 136.777344 210.105469 142.742188 210.046875 C 154.726562 209.875 166.710938 209.246094 178.636719 207.925781 C 180.070312 207.8125 180.128906 205.691406 178.636719 205.632812 Z M 250.660156 174.457031 C 227.664062 171.878906 204.785156 171.304688 181.734375 170.332031 C 158.855469 169.355469 135.632812 168.554688 112.808594 169.871094 C 108.222656 170.160156 108.164062 176.863281 112.808594 176.976562 C 135.746094 177.722656 158.855469 176.863281 181.734375 176.519531 C 204.726562 176.175781 227.664062 176.804688 250.660156 176.0625 C 251.746094 176.0625 251.691406 174.570312 250.660156 174.457031 Z M 146.066406 127.632812 C 140.105469 127.632812 134.140625 127.632812 128.175781 127.691406 C 122.441406 127.75 117.511719 127.519531 112.351562 129.925781 C 110.6875 130.671875 111.433594 132.90625 112.808594 133.421875 C 117.855469 135.425781 122.84375 134.855469 128.175781 134.796875 C 134.140625 134.683594 140.105469 134.625 146.066406 134.625 C 157.652344 134.625 169.234375 134.855469 180.816406 135.253906 C 203.925781 136 226.976562 137.378906 250.085938 137.949219 C 251.40625 138.007812 251.746094 135.828125 250.429688 135.601562 C 227.433594 131.300781 204.152344 129.355469 180.816406 128.378906 C 169.234375 127.921875 157.652344 127.691406 146.066406 127.632812 Z M 109.425781 94.394531 C 120.78125 95.828125 132.996094 94.507812 144.40625 94.449219 C 156.046875 94.394531 167.742188 94.335938 179.382812 94.277344 C 190.679688 94.222656 202.03125 93.992188 213.328125 93.933594 C 225.082031 93.875 237.183594 93.363281 248.9375 94.222656 C 250.257812 94.335938 250.542969 92.101562 249.226562 91.929688 C 237.871094 90.324219 226.804688 88.949219 215.28125 88.546875 C 203.292969 88.144531 191.308594 87.804688 179.324219 87.746094 C 167.628906 87.628906 155.988281 87.6875 144.347656 87.6875 C 132.589844 87.746094 120.148438 86.710938 108.507812 88.316406 C 104.78125 88.777344 106.273438 93.992188 109.425781 94.394531 Z M 323.25 71.640625 C 319.355469 69.175781 317.003906 65.792969 313.734375 62.699219 C 309.203125 58.402344 303.066406 58.515625 297.964844 61.839844 C 288.789062 67.800781 285.867188 82.070312 284.375 92.101562 C 281.222656 113.535156 284.777344 135.484375 286.097656 156.917969 C 287.414062 179.328125 287.585938 201.792969 286.496094 224.203125 C 285.464844 245.351562 284.089844 267.242188 279.671875 287.988281 C 276.460938 303.175781 266.542969 320.199219 248.707031 318.25 C 247.675781 318.136719 247.621094 316.644531 248.707031 316.644531 C 261.4375 316.476562 270.269531 305.355469 273.710938 294.125 C 277.324219 282.375 277.894531 269.480469 278.984375 257.269531 C 280.992188 234.289062 281.851562 211.132812 281.449219 188.097656 C 281.050781 165.460938 278.410156 142.992188 277.148438 120.414062 C 276.117188 101.898438 276.519531 78.347656 288.503906 62.988281 C 293.378906 56.738281 300.601562 52.324219 308.746094 53.53125 C 317.402344 54.789062 320.5 62.414062 326.175781 67.859375 C 328.070312 69.804688 325.488281 73.070312 323.25 71.640625"/></g><path fill="#7D9B76" d="M 240.910156 225.921875 C 240.050781 226.667969 239.9375 227.929688 239.992188 229.015625 C 240.050781 230.046875 239.992188 231.023438 240.105469 232.054688 C 240.277344 233.832031 241.597656 235.261719 243.492188 234.976562 C 245.441406 234.691406 246.242188 233.027344 245.957031 231.25 C 245.726562 229.933594 245.265625 228.386719 244.578125 227.238281 C 243.890625 225.867188 242.285156 224.777344 240.910156 225.921875 Z M 225.027344 208.386719 C 224.167969 208.15625 223.996094 206.894531 224.796875 206.492188 C 232.136719 202.652344 240.335938 207.753906 242.972656 214.976562 C 243.375 216.007812 242.917969 217.382812 242.171875 218.128906 C 241.082031 219.15625 239.589844 219.445312 238.273438 218.644531 C 236.78125 217.785156 236.378906 215.777344 235.464844 214.460938 C 233.054688 210.964844 228.925781 209.359375 225.027344 208.386719"/></svg>