<svg xmlns="http://www.w3.org/2000/svg" width="375" viewBox="0 0 375 375" height="375" version="1.0"><defs><clipPath id="a"><path d="M 48.363281 49.597656 L 326.613281 49.597656 L 326.613281 307.597656 L 48.363281 307.597656 Z M 48.363281 49.597656"/></clipPath><clipPath id="b"><path d="M 48.363281 109 L 326.613281 109 L 326.613281 129 L 48.363281 129 Z M 48.363281 109"/></clipPath></defs><path fill="#7D9B76" d="M 134.566406 238.136719 C 133.25 238.136719 131.984375 237.882812 130.769531 237.378906 C 129.554688 236.875 128.480469 236.160156 127.550781 235.226562 L 101.082031 208.773438 C 100.621094 208.3125 100.210938 207.8125 99.847656 207.269531 C 99.484375 206.726562 99.179688 206.15625 98.929688 205.550781 C 98.679688 204.949219 98.492188 204.328125 98.363281 203.691406 C 98.238281 203.050781 98.171875 202.40625 98.171875 201.753906 C 98.171875 201.101562 98.238281 200.453125 98.363281 199.816406 C 98.492188 199.175781 98.679688 198.554688 98.929688 197.953125 C 99.179688 197.351562 99.484375 196.777344 99.847656 196.234375 C 100.210938 195.695312 100.621094 195.191406 101.082031 194.730469 L 127.550781 168.265625 C 128.011719 167.804688 128.511719 167.394531 129.054688 167.03125 C 129.597656 166.667969 130.167969 166.363281 130.769531 166.113281 C 131.371094 165.863281 131.992188 165.675781 132.632812 165.546875 C 133.273438 165.421875 133.917969 165.359375 134.570312 165.359375 C 135.222656 165.359375 135.867188 165.421875 136.507812 165.546875 C 137.148438 165.675781 137.769531 165.863281 138.371094 166.113281 C 138.972656 166.363281 139.546875 166.667969 140.085938 167.03125 C 140.628906 167.394531 141.128906 167.804688 141.589844 168.265625 C 142.050781 168.726562 142.464844 169.230469 142.824219 169.773438 C 143.1875 170.3125 143.492188 170.886719 143.742188 171.488281 C 143.992188 172.089844 144.179688 172.710938 144.304688 173.351562 C 144.433594 173.992188 144.496094 174.636719 144.496094 175.289062 C 144.496094 175.941406 144.429688 176.585938 144.304688 177.226562 C 144.175781 177.867188 143.988281 178.488281 143.738281 179.089844 C 143.488281 179.691406 143.179688 180.261719 142.816406 180.804688 C 142.457031 181.347656 142.042969 181.847656 141.582031 182.308594 L 122.132812 201.746094 L 141.582031 221.195312 C 142.273438 221.890625 142.851562 222.671875 143.316406 223.535156 C 143.777344 224.402344 144.105469 225.316406 144.296875 226.277344 C 144.488281 227.238281 144.535156 228.207031 144.4375 229.183594 C 144.34375 230.160156 144.105469 231.101562 143.730469 232.007812 C 143.355469 232.914062 142.855469 233.75 142.234375 234.507812 C 141.613281 235.265625 140.894531 235.917969 140.078125 236.460938 C 139.261719 237.007812 138.382812 237.421875 137.445312 237.707031 C 136.507812 237.992188 135.546875 238.136719 134.566406 238.136719 Z M 134.566406 238.136719"/><path fill="#7D9B76" d="M 240.410156 238.136719 C 239.429688 238.136719 238.46875 237.992188 237.53125 237.707031 C 236.589844 237.421875 235.714844 237.007812 234.898438 236.460938 C 234.082031 235.917969 233.363281 235.265625 232.742188 234.507812 C 232.117188 233.75 231.621094 232.914062 231.246094 232.007812 C 230.867188 231.101562 230.632812 230.160156 230.535156 229.183594 C 230.441406 228.207031 230.488281 227.238281 230.679688 226.277344 C 230.871094 225.316406 231.199219 224.402344 231.660156 223.535156 C 232.121094 222.671875 232.699219 221.890625 233.394531 221.195312 L 252.84375 201.746094 L 233.394531 182.308594 C 232.933594 181.847656 232.523438 181.347656 232.160156 180.804688 C 231.796875 180.261719 231.492188 179.691406 231.242188 179.089844 C 230.992188 178.488281 230.804688 177.867188 230.675781 177.226562 C 230.550781 176.589844 230.484375 175.941406 230.484375 175.289062 C 230.484375 174.640625 230.546875 173.992188 230.675781 173.355469 C 230.800781 172.714844 230.988281 172.09375 231.238281 171.492188 C 231.488281 170.890625 231.792969 170.316406 232.15625 169.777344 C 232.519531 169.234375 232.929688 168.734375 233.390625 168.273438 C 233.851562 167.8125 234.351562 167.398438 234.894531 167.035156 C 235.433594 166.675781 236.007812 166.367188 236.609375 166.121094 C 237.210938 165.871094 237.832031 165.679688 238.472656 165.554688 C 239.109375 165.425781 239.753906 165.363281 240.40625 165.363281 C 241.058594 165.363281 241.703125 165.425781 242.34375 165.550781 C 242.984375 165.679688 243.605469 165.867188 244.207031 166.117188 C 244.808594 166.367188 245.378906 166.671875 245.921875 167.03125 C 246.464844 167.394531 246.964844 167.804688 247.425781 168.265625 L 273.894531 194.730469 C 274.355469 195.191406 274.765625 195.695312 275.128906 196.234375 C 275.492188 196.777344 275.796875 197.351562 276.046875 197.953125 C 276.296875 198.554688 276.484375 199.175781 276.613281 199.816406 C 276.738281 200.453125 276.804688 201.101562 276.804688 201.753906 C 276.804688 202.402344 276.738281 203.050781 276.613281 203.691406 C 276.484375 204.328125 276.296875 204.949219 276.046875 205.550781 C 275.796875 206.15625 275.492188 206.726562 275.128906 207.269531 C 274.765625 207.8125 274.355469 208.3125 273.894531 208.773438 L 247.425781 235.226562 C 246.496094 236.160156 245.421875 236.875 244.207031 237.378906 C 242.992188 237.882812 241.726562 238.136719 240.410156 238.136719 Z M 240.410156 238.136719"/><path fill="#7D9B76" d="M 174.25 238.136719 C 173.828125 238.136719 173.410156 238.109375 172.992188 238.054688 C 172.574219 238 172.164062 237.921875 171.753906 237.816406 C 171.347656 237.707031 170.949219 237.578125 170.558594 237.421875 C 170.167969 237.265625 169.789062 237.082031 169.421875 236.878906 C 169.050781 236.671875 168.699219 236.445312 168.359375 236.195312 C 168.023438 235.945312 167.699219 235.675781 167.394531 235.382812 C 167.09375 235.09375 166.808594 234.78125 166.542969 234.457031 C 166.277344 234.128906 166.035156 233.785156 165.8125 233.429688 C 165.59375 233.070312 165.394531 232.699219 165.21875 232.316406 C 165.046875 231.933594 164.898438 231.539062 164.773438 231.136719 C 164.648438 230.734375 164.550781 230.328125 164.476562 229.910156 C 164.40625 229.496094 164.359375 229.078125 164.34375 228.660156 C 164.324219 228.238281 164.332031 227.816406 164.367188 227.398438 C 164.398438 226.980469 164.460938 226.5625 164.546875 226.152344 C 164.636719 225.738281 164.75 225.335938 164.886719 224.9375 C 165.027344 224.539062 165.191406 224.152344 165.378906 223.777344 L 191.835938 170.847656 C 192.128906 170.265625 192.476562 169.714844 192.875 169.199219 C 193.277344 168.683594 193.726562 168.214844 194.21875 167.789062 C 194.714844 167.363281 195.246094 166.988281 195.8125 166.664062 C 196.378906 166.34375 196.972656 166.078125 197.59375 165.875 C 198.214844 165.667969 198.847656 165.527344 199.496094 165.445312 C 200.144531 165.367188 200.792969 165.351562 201.441406 165.398438 C 202.09375 165.445312 202.734375 165.558594 203.363281 165.730469 C 203.992188 165.90625 204.597656 166.136719 205.183594 166.429688 C 205.765625 166.722656 206.3125 167.070312 206.828125 167.472656 C 207.34375 167.875 207.8125 168.320312 208.242188 168.816406 C 208.667969 169.308594 209.042969 169.839844 209.363281 170.410156 C 209.6875 170.976562 209.949219 171.570312 210.152344 172.191406 C 210.359375 172.808594 210.5 173.441406 210.582031 174.089844 C 210.664062 174.738281 210.679688 175.386719 210.628906 176.039062 C 210.582031 176.691406 210.472656 177.328125 210.296875 177.960938 C 210.125 178.589844 209.890625 179.195312 209.597656 179.777344 L 183.140625 232.699219 C 182.726562 233.519531 182.207031 234.265625 181.582031 234.941406 C 180.957031 235.621094 180.253906 236.199219 179.46875 236.675781 C 178.683594 237.15625 177.847656 237.523438 176.960938 237.769531 C 176.074219 238.015625 175.171875 238.140625 174.25 238.136719 Z M 174.25 238.136719"/><g clip-path="url(#a)"><path fill="#7D9B76" d="M 316.496094 307.597656 L 58.480469 307.597656 C 57.828125 307.597656 57.183594 307.53125 56.546875 307.40625 C 55.90625 307.277344 55.285156 307.089844 54.683594 306.839844 C 54.082031 306.59375 53.511719 306.285156 52.96875 305.925781 C 52.425781 305.5625 51.925781 305.152344 51.464844 304.691406 C 51.003906 304.230469 50.59375 303.726562 50.230469 303.1875 C 49.867188 302.644531 49.5625 302.074219 49.3125 301.472656 C 49.0625 300.867188 48.875 300.25 48.75 299.609375 C 48.621094 298.96875 48.558594 298.324219 48.558594 297.671875 L 48.558594 59.519531 C 48.558594 58.867188 48.621094 58.222656 48.75 57.582031 C 48.875 56.945312 49.0625 56.324219 49.3125 55.722656 C 49.5625 55.121094 49.867188 54.546875 50.230469 54.007812 C 50.59375 53.464844 51.003906 52.964844 51.464844 52.503906 C 51.925781 52.042969 52.425781 51.632812 52.96875 51.269531 C 53.511719 50.90625 54.082031 50.601562 54.683594 50.351562 C 55.285156 50.101562 55.90625 49.914062 56.546875 49.789062 C 57.183594 49.660156 57.828125 49.597656 58.480469 49.597656 L 316.496094 49.597656 C 317.148438 49.597656 317.792969 49.660156 318.429688 49.789062 C 319.070312 49.914062 319.691406 50.101562 320.292969 50.351562 C 320.894531 50.601562 321.464844 50.90625 322.007812 51.269531 C 322.550781 51.632812 323.050781 52.042969 323.511719 52.503906 C 323.972656 52.964844 324.382812 53.464844 324.746094 54.007812 C 325.109375 54.546875 325.414062 55.121094 325.664062 55.722656 C 325.914062 56.324219 326.101562 56.945312 326.226562 57.582031 C 326.355469 58.222656 326.417969 58.867188 326.417969 59.519531 L 326.417969 297.671875 C 326.417969 298.324219 326.355469 298.96875 326.226562 299.609375 C 326.101562 300.25 325.914062 300.867188 325.664062 301.472656 C 325.414062 302.074219 325.109375 302.644531 324.746094 303.1875 C 324.382812 303.726562 323.972656 304.230469 323.511719 304.691406 C 323.050781 305.152344 322.550781 305.5625 322.007812 305.925781 C 321.464844 306.285156 320.894531 306.59375 320.292969 306.839844 C 319.691406 307.089844 319.070312 307.277344 318.429688 307.40625 C 317.792969 307.53125 317.148438 307.597656 316.496094 307.597656 Z M 68.40625 287.75 L 306.570312 287.75 L 306.570312 69.441406 L 68.40625 69.441406 Z M 68.40625 287.75"/></g><g clip-path="url(#b)"><path fill="#7D9B76" d="M 316.496094 128.980469 L 58.480469 128.980469 C 57.828125 128.980469 57.183594 128.917969 56.546875 128.789062 C 55.90625 128.664062 55.285156 128.476562 54.683594 128.226562 C 54.082031 127.976562 53.511719 127.671875 52.96875 127.308594 C 52.425781 126.945312 51.925781 126.535156 51.464844 126.074219 C 51.003906 125.613281 50.59375 125.113281 50.230469 124.570312 C 49.867188 124.03125 49.5625 123.457031 49.3125 122.855469 C 49.0625 122.253906 48.875 121.632812 48.75 120.996094 C 48.621094 120.355469 48.558594 119.710938 48.558594 119.058594 C 48.558594 118.40625 48.621094 117.761719 48.75 117.121094 C 48.875 116.484375 49.0625 115.863281 49.3125 115.261719 C 49.5625 114.660156 49.867188 114.085938 50.230469 113.546875 C 50.59375 113.003906 51.003906 112.503906 51.464844 112.042969 C 51.925781 111.582031 52.425781 111.167969 52.96875 110.808594 C 53.511719 110.445312 54.082031 110.140625 54.683594 109.890625 C 55.285156 109.640625 55.90625 109.453125 56.546875 109.324219 C 57.183594 109.199219 57.828125 109.136719 58.480469 109.136719 L 316.496094 109.136719 C 317.148438 109.136719 317.792969 109.199219 318.429688 109.324219 C 319.070312 109.453125 319.691406 109.640625 320.292969 109.890625 C 320.894531 110.140625 321.464844 110.445312 322.007812 110.808594 C 322.550781 111.167969 323.050781 111.582031 323.511719 112.042969 C 323.972656 112.503906 324.382812 113.003906 324.746094 113.546875 C 325.109375 114.085938 325.414062 114.660156 325.664062 115.261719 C 325.914062 115.863281 326.101562 116.484375 326.226562 117.121094 C 326.355469 117.761719 326.417969 118.40625 326.417969 119.058594 C 326.417969 119.710938 326.355469 120.355469 326.226562 120.996094 C 326.101562 121.632812 325.914062 122.253906 325.664062 122.855469 C 325.414062 123.457031 325.109375 124.03125 324.746094 124.570312 C 324.382812 125.113281 323.972656 125.613281 323.511719 126.074219 C 323.050781 126.535156 322.550781 126.945312 322.007812 127.308594 C 321.464844 127.671875 320.894531 127.976562 320.292969 128.226562 C 319.691406 128.476562 319.070312 128.664062 318.429688 128.789062 C 317.792969 128.917969 317.148438 128.980469 316.496094 128.980469 Z M 316.496094 128.980469"/></g><path fill="#7D9B76" d="M 227.183594 99.210938 C 226.515625 99.191406 225.855469 99.125 225.199219 99.015625 C 224.574219 98.90625 223.976562 98.707031 223.410156 98.417969 C 222.773438 98.199219 222.175781 97.902344 221.617188 97.523438 L 220.136719 96.335938 C 219.679688 95.867188 219.273438 95.363281 218.914062 94.816406 C 218.554688 94.273438 218.253906 93.699219 218.003906 93.09375 C 217.757812 92.492188 217.574219 91.867188 217.445312 91.226562 C 217.320312 90.585938 217.257812 89.941406 217.257812 89.289062 C 217.257812 88.636719 217.320312 87.992188 217.445312 87.351562 C 217.574219 86.710938 217.757812 86.085938 218.003906 85.484375 C 218.253906 84.878906 218.554688 84.304688 218.914062 83.761719 C 219.273438 83.214844 219.679688 82.710938 220.136719 82.242188 C 220.839844 81.566406 221.625 81 222.492188 80.550781 C 223.363281 80.097656 224.277344 79.78125 225.234375 79.597656 C 226.195312 79.410156 227.164062 79.367188 228.136719 79.460938 C 229.109375 79.558594 230.046875 79.789062 230.953125 80.160156 C 231.566406 80.359375 232.128906 80.660156 232.640625 81.054688 C 233.226562 81.449219 233.730469 81.847656 234.226562 82.242188 C 234.683594 82.710938 235.09375 83.214844 235.453125 83.761719 C 235.808594 84.304688 236.113281 84.878906 236.359375 85.484375 C 236.605469 86.085938 236.792969 86.710938 236.917969 87.351562 C 237.042969 87.992188 237.105469 88.636719 237.105469 89.289062 C 237.105469 89.941406 237.042969 90.585938 236.917969 91.226562 C 236.792969 91.867188 236.605469 92.492188 236.359375 93.09375 C 236.113281 93.699219 235.808594 94.273438 235.453125 94.816406 C 235.09375 95.363281 234.683594 95.867188 234.226562 96.335938 C 233.253906 97.214844 232.164062 97.910156 230.953125 98.417969 C 229.75 98.933594 228.492188 99.195312 227.183594 99.210938 Z M 227.183594 99.210938"/><path fill="#7D9B76" d="M 256.953125 99.210938 C 256.289062 99.191406 255.625 99.125 254.96875 99.015625 C 254.34375 98.90625 253.746094 98.707031 253.183594 98.417969 C 252.542969 98.199219 251.945312 97.902344 251.386719 97.523438 C 250.871094 97.15625 250.378906 96.757812 249.90625 96.335938 C 248.980469 95.390625 248.285156 94.300781 247.824219 93.058594 C 247.292969 91.859375 247.03125 90.601562 247.03125 89.289062 C 247.03125 87.976562 247.292969 86.71875 247.824219 85.519531 C 248.332031 84.308594 249.027344 83.214844 249.90625 82.242188 C 250.601562 81.542969 251.382812 80.960938 252.25 80.492188 C 253.117188 80.027344 254.035156 79.695312 255 79.503906 C 255.96875 79.308594 256.941406 79.257812 257.921875 79.355469 C 258.902344 79.453125 259.847656 79.6875 260.757812 80.066406 C 261.667969 80.445312 262.503906 80.945312 263.265625 81.574219 C 264.027344 82.199219 264.679688 82.925781 265.222656 83.746094 C 265.769531 84.566406 266.179688 85.449219 266.460938 86.394531 C 266.746094 87.339844 266.882812 88.304688 266.875 89.289062 C 266.859375 90.601562 266.601562 91.867188 266.101562 93.082031 C 265.605469 94.300781 264.90625 95.382812 264 96.335938 C 263.523438 96.757812 263.027344 97.15625 262.511719 97.523438 C 261.953125 97.902344 261.359375 98.199219 260.722656 98.417969 C 260.160156 98.707031 259.5625 98.902344 258.9375 99.015625 C 258.28125 99.128906 257.621094 99.195312 256.953125 99.210938 Z M 256.953125 99.210938"/><path fill="#7D9B76" d="M 286.722656 99.210938 C 286.070312 99.21875 285.421875 99.160156 284.78125 99.039062 C 284.140625 98.914062 283.515625 98.730469 282.910156 98.484375 C 282.304688 98.238281 281.730469 97.933594 281.1875 97.570312 C 280.644531 97.210938 280.140625 96.796875 279.675781 96.335938 C 279.214844 95.875 278.804688 95.371094 278.441406 94.824219 C 278.082031 94.28125 277.777344 93.707031 277.527344 93.101562 C 277.28125 92.496094 277.097656 91.875 276.972656 91.230469 C 276.851562 90.589844 276.792969 89.941406 276.800781 89.289062 C 276.765625 87.96875 277.03125 86.710938 277.59375 85.519531 C 278.101562 84.308594 278.796875 83.214844 279.679688 82.242188 C 280.152344 81.804688 280.667969 81.414062 281.214844 81.070312 C 281.761719 80.726562 282.339844 80.4375 282.941406 80.203125 C 283.542969 79.96875 284.164062 79.789062 284.800781 79.667969 C 285.433594 79.550781 286.078125 79.488281 286.722656 79.488281 C 287.371094 79.488281 288.011719 79.550781 288.648438 79.667969 C 289.285156 79.789062 289.902344 79.96875 290.507812 80.203125 C 291.109375 80.4375 291.683594 80.726562 292.234375 81.070312 C 292.78125 81.414062 293.292969 81.804688 293.769531 82.242188 C 294.652344 83.214844 295.347656 84.308594 295.855469 85.519531 C 296.367188 86.722656 296.632812 87.980469 296.648438 89.289062 C 296.65625 89.941406 296.597656 90.589844 296.472656 91.230469 C 296.351562 91.875 296.167969 92.496094 295.917969 93.101562 C 295.671875 93.707031 295.367188 94.28125 295.007812 94.824219 C 294.644531 95.371094 294.234375 95.875 293.769531 96.335938 C 293.308594 96.796875 292.804688 97.210938 292.261719 97.570312 C 291.71875 97.933594 291.140625 98.238281 290.539062 98.484375 C 289.933594 98.730469 289.308594 98.914062 288.667969 99.039062 C 288.023438 99.160156 287.378906 99.21875 286.722656 99.210938 Z M 286.722656 99.210938"/></svg>