<svg xmlns="http://www.w3.org/2000/svg" width="375" viewBox="0 0 375 375" height="375" version="1.0"><defs><clipPath id="a"><path d="M 46.535156 46.535156 L 328.535156 46.535156 L 328.535156 205 L 46.535156 205 Z M 46.535156 46.535156"/></clipPath><clipPath id="b"><path d="M 77 227 L 307 227 L 307 328.535156 L 77 328.535156 Z M 77 227"/></clipPath></defs><path fill="#7D9B76" d="M 108.347656 198.3125 C 109.664062 198.3125 110.984375 198.09375 112.304688 197.433594 C 122.644531 192.152344 132.984375 189.515625 143.101562 189.515625 C 164.878906 189.515625 178.734375 202.050781 181.15625 204.472656 C 181.375 204.691406 181.375 204.691406 181.59375 204.914062 C 183.136719 206.453125 185.335938 207.332031 187.535156 207.332031 C 189.734375 207.332031 191.933594 206.453125 193.695312 204.691406 C 193.914062 204.472656 193.914062 204.472656 194.132812 204.253906 C 196.554688 202.050781 210.410156 189.292969 232.1875 189.292969 C 242.085938 189.292969 252.425781 191.933594 262.984375 197.214844 C 264.304688 197.875 265.625 198.09375 266.945312 198.09375 C 268.484375 198.09375 270.242188 197.652344 271.5625 196.773438 C 274.203125 195.234375 275.742188 192.375 275.742188 189.292969 L 275.742188 158.9375 C 275.742188 154.757812 272.882812 151.238281 268.921875 150.359375 L 189.734375 132.761719 C 188.855469 132.542969 188.195312 132.542969 187.535156 132.542969 C 186.875 132.542969 186.433594 132.542969 185.773438 132.761719 C 185.773438 132.761719 185.554688 132.761719 185.554688 132.761719 L 106.367188 150.359375 C 102.40625 151.238281 99.546875 154.757812 99.546875 158.9375 L 99.546875 189.515625 C 99.546875 192.59375 101.085938 195.453125 103.726562 196.992188 C 105.046875 197.875 106.804688 198.3125 108.347656 198.3125 Z M 108.347656 158.9375 L 187.535156 141.339844 L 266.722656 158.9375 L 266.722656 189.515625 C 253.964844 183.136719 242.308594 180.714844 232.1875 180.714844 C 206.011719 180.714844 189.734375 196.332031 187.753906 198.3125 C 187.753906 198.3125 187.753906 198.3125 187.753906 198.535156 C 187.753906 198.535156 187.753906 198.535156 187.753906 198.3125 C 185.773438 196.332031 169.496094 180.714844 143.320312 180.714844 C 133.203125 180.714844 121.542969 183.136719 108.785156 189.515625 L 108.785156 158.9375 Z M 108.347656 158.9375"/><g clip-path="url(#a)"><path fill="#7D9B76" d="M 322.15625 89.207031 L 190.175781 47.195312 C 189.292969 46.976562 188.414062 46.753906 187.535156 46.753906 C 186.65625 46.753906 185.773438 46.976562 184.894531 47.195312 L 52.914062 89.207031 C 49.394531 90.308594 46.753906 93.609375 46.753906 97.347656 C 46.753906 101.085938 48.953125 104.605469 52.472656 105.707031 L 57.753906 107.6875 L 57.753906 171.917969 L 47.195312 197.875 C 46.535156 199.191406 46.753906 200.734375 47.632812 202.050781 C 48.515625 203.371094 49.835938 204.03125 51.375 204.03125 L 73.371094 204.03125 C 74.910156 204.03125 76.230469 203.371094 77.109375 202.050781 C 77.992188 200.953125 77.992188 199.191406 77.550781 197.875 L 66.550781 172.136719 L 66.550781 110.984375 L 95.148438 121.324219 L 95.148438 130.34375 C 95.148438 132.984375 96.46875 135.621094 98.449219 137.160156 C 99.988281 138.480469 101.96875 139.140625 103.945312 139.140625 C 104.605469 139.140625 105.265625 139.140625 105.925781 138.921875 L 187.535156 119.5625 L 266.945312 138.921875 C 267.601562 139.140625 268.261719 139.140625 269.144531 139.140625 C 271.121094 139.140625 273.101562 138.480469 274.640625 137.160156 C 276.84375 135.402344 277.941406 132.984375 277.941406 130.34375 L 277.941406 121.105469 L 322.59375 105.707031 C 326.113281 104.386719 328.535156 101.085938 328.535156 97.347656 C 328.316406 93.609375 325.675781 90.308594 322.15625 89.207031 Z M 66.550781 195.234375 L 57.753906 195.234375 L 62.152344 184.457031 Z M 257.703125 105.265625 C 257.042969 107.246094 255.285156 108.347656 253.527344 108.347656 C 253.085938 108.347656 252.644531 108.347656 252.207031 108.125 L 186.214844 86.570312 L 118.464844 108.125 C 116.265625 108.785156 113.625 107.464844 112.964844 105.265625 C 112.304688 102.847656 113.625 100.425781 115.824219 99.765625 L 184.894531 77.769531 C 185.773438 77.550781 186.65625 77.550781 187.535156 77.769531 L 254.84375 99.765625 C 257.265625 100.425781 258.363281 103.066406 257.703125 105.265625 Z M 257.703125 105.265625"/></g><g clip-path="url(#b)"><path fill="#7D9B76" d="M 77.550781 266.285156 C 77.550781 287.621094 94.269531 305 114.945312 305.21875 C 146.402344 305.4375 188.414062 305.878906 250.226562 323.035156 C 250.886719 323.476562 251.546875 323.695312 251.984375 324.136719 C 252.207031 324.355469 252.425781 324.355469 252.644531 324.574219 C 253.527344 325.015625 254.625 325.457031 255.503906 325.894531 C 255.945312 326.113281 256.386719 326.335938 256.824219 326.335938 C 257.265625 326.554688 257.703125 326.554688 258.363281 326.773438 C 259.023438 326.996094 259.90625 327.214844 260.5625 327.433594 C 261.003906 327.433594 261.222656 327.65625 261.664062 327.65625 C 262.542969 327.875 263.644531 328.09375 264.523438 328.09375 C 264.742188 328.09375 265.183594 328.09375 265.402344 328.09375 C 266.503906 328.09375 267.601562 328.316406 268.703125 328.316406 C 289.378906 328.316406 306.097656 310.9375 306.097656 289.378906 C 306.097656 289.378906 306.097656 289.378906 306.097656 289.160156 C 306.097656 274.203125 297.300781 259.90625 283.441406 253.523438 C 280.140625 251.984375 275.082031 250.226562 271.121094 250.226562 C 271.121094 250.226562 270.902344 250.226562 270.902344 250.226562 C 270.902344 250.226562 270.902344 250.226562 271.121094 250.226562 C 270.683594 250.226562 270.242188 250.226562 270.023438 250.226562 C 269.804688 250.226562 268.703125 250.226562 268.703125 250.226562 C 217.449219 251.324219 182.914062 242.746094 152.339844 235.269531 C 139.363281 232.1875 127.261719 229.109375 115.386719 227.347656 C 107.027344 226.027344 98.449219 228.667969 91.410156 234.609375 C 83.050781 242.308594 77.550781 254.40625 77.550781 266.285156 Z M 248.246094 268.703125 C 253.527344 262.984375 260.785156 259.246094 268.921875 259.246094 C 269.363281 259.246094 269.582031 259.246094 270.023438 259.246094 C 260.125 259.90625 255.726562 269.144531 255.726562 277.722656 C 255.726562 288.058594 263.644531 296.417969 273.324219 296.417969 C 275.742188 296.417969 277.722656 298.398438 277.722656 300.820312 C 277.722656 303.238281 275.742188 305.21875 273.324219 305.21875 C 258.804688 305.21875 246.925781 292.898438 246.925781 277.722656 C 246.925781 274.640625 247.367188 271.5625 248.246094 268.703125 Z M 183.355469 251.546875 C 201.394531 255.066406 221.628906 257.925781 245.605469 259.023438 C 238.347656 264.964844 233.507812 273.761719 232.1875 283 C 230.648438 292.460938 232.628906 302.359375 237.6875 310.277344 C 237.6875 310.277344 237.6875 310.496094 237.6875 310.496094 C 217.230469 305.4375 198.972656 302.136719 182.695312 300.160156 C 182.476562 299.9375 182.476562 299.71875 182.253906 299.71875 C 178.074219 296.417969 174.996094 292.898438 172.578125 289.601562 C 176.316406 290.921875 179.394531 291.578125 182.035156 291.578125 C 185.113281 291.578125 187.535156 290.699219 189.734375 289.160156 C 196.113281 284.101562 194.355469 273.761719 192.375 266.503906 C 190.613281 260.125 187.09375 258.144531 184.457031 257.703125 C 180.9375 257.046875 177.195312 258.585938 173.457031 261.222656 C 177.855469 255.285156 183.136719 251.765625 183.355469 251.546875 Z M 182.695312 266.285156 C 182.914062 266.285156 183.355469 266.945312 183.796875 268.703125 C 186.65625 279.921875 184.457031 281.902344 184.234375 282.121094 C 183.796875 282.339844 180.714844 284.320312 168.175781 278.160156 C 174.554688 270.683594 180.714844 265.625 182.695312 266.285156 Z M 97.347656 241.425781 C 100.867188 238.347656 106.585938 235.046875 114.285156 236.148438 C 125.722656 237.90625 137.601562 240.765625 150.359375 243.847656 C 157.179688 245.605469 164.65625 247.367188 172.355469 249.125 C 168.835938 252.425781 164.65625 257.042969 162.019531 262.984375 C 159.160156 257.046875 155.199219 251.546875 150.140625 250.445312 C 147.5 250.007812 143.539062 250.445312 139.582031 255.726562 C 135.183594 261.664062 129.902344 270.464844 133.863281 277.722656 C 136.722656 282.5625 143.101562 284.980469 153.878906 284.980469 C 155.859375 284.980469 158.058594 284.980469 160.257812 284.761719 C 161.796875 289.601562 164.4375 294.21875 168.398438 298.839844 C 147.5 296.859375 129.902344 296.640625 114.945312 296.640625 C 99.105469 296.417969 86.347656 283 86.347656 266.503906 C 86.347656 256.824219 90.527344 247.367188 97.347656 241.425781 Z M 157.617188 276.183594 C 144.421875 276.84375 142 273.984375 141.5625 273.324219 C 140.679688 271.78125 141.5625 267.824219 146.621094 261.003906 C 147.71875 259.464844 148.378906 259.246094 148.378906 259.246094 C 150.578125 259.464844 154.539062 266.722656 157.617188 276.183594 Z M 157.617188 276.183594"/></g></svg>