<svg xmlns="http://www.w3.org/2000/svg" width="375" viewBox="0 0 375 375" height="375" version="1.0"><defs><clipPath id="a"><path d="M 1.472656 1.472656 L 374.972656 1.472656 L 374.972656 374.972656 L 1.472656 374.972656 Z M 1.472656 1.472656"/></clipPath></defs><g clip-path="url(#a)"><path fill="#7D9B76" d="M 281.078125 1.621094 L 95.070312 1.621094 C 43.53125 1.621094 1.472656 43.679688 1.472656 95.21875 L 1.472656 281.523438 C 1.472656 332.765625 43.53125 374.824219 95.070312 374.824219 L 281.375 374.824219 C 332.914062 374.824219 374.972656 332.765625 374.972656 281.226562 L 374.972656 95.21875 C 374.675781 43.679688 332.617188 1.621094 281.078125 1.621094 Z M 125.875 303.738281 L 72.558594 303.738281 L 72.558594 149.714844 L 125.875 149.714844 Z M 98.917969 126.019531 C 83.8125 126.019531 71.667969 113.878906 71.667969 98.769531 C 71.667969 83.664062 83.8125 71.523438 98.917969 71.523438 C 114.027344 71.523438 126.167969 83.664062 126.167969 98.769531 C 125.875 113.878906 113.730469 126.019531 98.917969 126.019531 Z M 303.589844 303.738281 L 259.160156 303.738281 L 259.160156 229.097656 C 259.160156 211.027344 256.789062 187.925781 232.207031 187.925781 C 207.03125 187.925781 202.882812 207.472656 202.882812 227.910156 L 202.882812 303.738281 L 158.453125 303.738281 L 158.453125 149.714844 L 199.921875 149.714844 L 199.921875 170.449219 L 201.105469 170.449219 C 207.621094 158.601562 222.726562 149.421875 246.425781 149.421875 C 295.296875 149.421875 303.886719 177.558594 303.886719 219.320312 L 303.886719 303.738281 Z M 303.589844 303.738281"/></g></svg>