<svg xmlns="http://www.w3.org/2000/svg" width="375" viewBox="0 0 375 375" height="375" version="1.0"><defs><clipPath id="a"><path d="M 90.132812 217.445312 L 336.746094 217.445312 L 336.746094 329 L 90.132812 329 Z M 90.132812 217.445312"/></clipPath><clipPath id="b"><path d="M 38.320312 255.445312 L 100 255.445312 L 100 335.054688 L 38.320312 335.054688 Z M 38.320312 255.445312"/></clipPath><clipPath id="c"><path d="M 165 39.578125 L 219 39.578125 L 219 128 L 165 128 Z M 165 39.578125"/></clipPath></defs><g clip-path="url(#a)"><path fill="#7D9B76" d="M 174.269531 328.417969 L 174.25 328.417969 L 95.269531 328.398438 C 92.664062 328.398438 90.566406 326.304688 90.566406 323.703125 C 90.566406 321.105469 92.664062 319.007812 95.269531 319.007812 L 174.25 319.027344 L 174.269531 319.027344 C 191.679688 319.027344 208.71875 314.175781 223.503906 305 L 322.460938 243.625 C 325.277344 241.53125 326.847656 239.164062 327.257812 236.429688 C 327.703125 233.4375 326.5 230.625 323.992188 228.882812 C 318.671875 225.171875 308.859375 226.648438 297.746094 232.800781 C 296.949219 233.265625 289.992188 237.632812 278.507812 244.867188 C 267.628906 251.71875 251.171875 262.078125 229.335938 275.777344 C 227.136719 277.15625 224.222656 276.496094 222.84375 274.304688 C 221.464844 272.109375 222.125 269.199219 224.320312 267.824219 C 246.15625 254.125 262.597656 243.761719 273.496094 236.914062 C 288.167969 227.679688 292.441406 225 293.179688 224.59375 C 300.738281 220.402344 307.789062 218.050781 314.125 217.570312 C 320.070312 217.121094 325.335938 218.363281 329.355469 221.175781 C 334.796875 224.960938 337.539062 231.34375 336.546875 237.84375 C 335.730469 243.160156 332.816406 247.679688 327.878906 251.292969 C 327.78125 251.371094 327.664062 251.445312 327.570312 251.507812 L 228.457031 312.976562 C 212.179688 323.0625 193.449219 328.417969 174.269531 328.417969" fill-rule="evenodd"/></g><path fill="#7D9B76" d="M 210.542969 289.902344 L 163.445312 289.902344 C 160.84375 289.902344 158.746094 287.808594 158.746094 285.207031 C 158.746094 282.605469 160.84375 280.511719 163.445312 280.511719 L 210.542969 280.511719 C 216.898438 280.511719 222.125 275.546875 222.414062 269.21875 C 222.570312 266 221.40625 262.933594 219.152344 260.566406 C 216.820312 258.117188 213.691406 256.78125 210.3125 256.78125 L 152.0625 256.78125 C 152.042969 256.78125 152.042969 256.78125 152.023438 256.78125 C 148 256.742188 138.613281 256.667969 128.84375 258.820312 C 118.039062 261.203125 109.375 265.6875 103.058594 272.152344 C 101.621094 273.601562 100.28125 275.195312 99.074219 276.867188 C 97.542969 278.960938 94.605469 279.425781 92.511719 277.890625 C 90.410156 276.359375 89.945312 273.429688 91.480469 271.332031 C 92.957031 269.296875 94.589844 267.375 96.335938 265.589844 C 103.957031 257.789062 114.210938 252.414062 126.824219 249.640625 C 136.402344 247.527344 145.355469 247.332031 152.097656 247.390625 L 210.332031 247.390625 C 216.214844 247.390625 221.914062 249.835938 225.972656 254.0625 C 230.015625 258.296875 232.109375 263.84375 231.839844 269.644531 C 231.277344 280.996094 221.949219 289.902344 210.542969 289.902344" fill-rule="evenodd"/><g clip-path="url(#b)"><path fill="#7D9B76" d="M 95.25 335.054688 L 43.042969 335.054688 C 40.4375 335.054688 38.320312 332.941406 38.320312 330.339844 C 38.320312 327.738281 40.417969 325.644531 43.023438 325.644531 C 43.160156 325.644531 43.277344 325.644531 43.410156 325.664062 L 90.566406 325.664062 L 90.566406 264.875 L 43.410156 264.875 C 43.277344 264.894531 43.160156 264.894531 43.023438 264.894531 C 40.417969 264.894531 38.320312 262.796875 38.320312 260.195312 C 38.320312 257.597656 40.4375 255.480469 43.042969 255.480469 L 95.25 255.480469 C 97.851562 255.480469 99.96875 257.597656 99.96875 260.195312 L 99.96875 330.339844 C 99.96875 332.941406 97.851562 335.054688 95.25 335.054688" fill-rule="evenodd"/></g><path fill="#7D9B76" d="M 248.179688 223.292969 C 246.972656 223.292969 245.769531 222.824219 244.859375 221.914062 C 230.730469 207.808594 211.964844 200.046875 192.027344 200.046875 C 172.09375 200.046875 153.324219 207.808594 139.199219 221.914062 C 137.371094 223.738281 134.378906 223.738281 132.550781 221.914062 C 130.726562 220.089844 130.726562 217.101562 132.550781 215.277344 C 140.597656 207.246094 149.960938 201.035156 160.398438 196.804688 C 170.480469 192.710938 181.125 190.65625 192.046875 190.65625 C 202.964844 190.65625 213.613281 192.730469 223.699219 196.804688 C 234.132812 201.035156 243.5 207.246094 251.539062 215.277344 C 253.367188 217.101562 253.367188 220.089844 251.539062 221.914062 C 250.589844 222.824219 249.382812 223.292969 248.179688 223.292969" fill-rule="evenodd"/><path fill="#7D9B76" d="M 192.203125 199.132812 C 189.597656 199.132812 187.503906 197.039062 187.503906 194.4375 L 187.503906 99.789062 C 187.503906 97.1875 189.597656 95.09375 192.203125 95.09375 C 194.808594 95.09375 196.902344 97.1875 196.902344 99.789062 L 196.902344 194.457031 C 196.902344 197.039062 194.808594 199.132812 192.203125 199.132812" fill-rule="evenodd"/><path fill="#7D9B76" d="M 192.203125 187.238281 C 189.597656 187.238281 187.503906 185.144531 187.503906 182.546875 C 187.503906 170.824219 192.769531 159.839844 203.164062 149.886719 C 210.425781 142.921875 220.238281 136.402344 233.121094 129.957031 C 235.433594 128.796875 238.269531 129.746094 239.4375 132.054688 C 240.601562 134.363281 239.648438 137.199219 237.339844 138.363281 C 225.292969 144.375 216.257812 150.375 209.671875 156.679688 C 201.082031 164.90625 196.902344 173.367188 196.902344 182.5625 C 196.902344 185.125 194.808594 187.238281 192.203125 187.238281" fill-rule="evenodd"/><path fill="#7D9B76" d="M 228.457031 162.773438 C 221.8125 162.773438 214.566406 160.304688 205.726562 156.464844 C 204.035156 155.726562 202.929688 154.078125 202.910156 152.238281 C 202.753906 143.234375 204.132812 135.335938 207.007812 128.773438 C 209.707031 122.605469 213.75 117.558594 218.976562 113.777344 C 234.464844 102.601562 257.351562 104.660156 273.59375 110.324219 C 275.265625 110.90625 276.46875 112.378906 276.703125 114.144531 C 276.933594 115.910156 276.160156 117.640625 274.683594 118.648438 C 265.765625 124.699219 261.839844 132.113281 260.167969 135.296875 C 259.894531 135.820312 259.660156 136.246094 259.449219 136.597656 C 259.371094 136.730469 258.867188 137.625 258.535156 138.1875 C 258.1875 138.808594 257.855469 139.371094 257.777344 139.488281 C 249.851562 153.050781 242.914062 159.785156 234.617188 161.976562 C 232.617188 162.519531 230.558594 162.773438 228.457031 162.773438 Z M 212.3125 149.054688 C 220.667969 152.527344 227.042969 154.273438 232.207031 152.914062 C 235.976562 151.925781 241.359375 148.953125 249.675781 134.753906 C 249.753906 134.617188 250.042969 134.09375 250.375 133.53125 C 250.976562 132.464844 251.289062 131.9375 251.386719 131.785156 C 251.484375 131.628906 251.675781 131.261719 251.871094 130.890625 C 253.234375 128.328125 256.261719 122.605469 262.148438 116.824219 C 256.804688 115.640625 251.40625 115.039062 246.375 115.117188 C 237.574219 115.25 230.015625 117.40625 224.496094 121.382812 C 216.761719 126.972656 212.679688 136.265625 212.3125 149.054688" fill-rule="evenodd"/><g clip-path="url(#c)"><path fill="#7D9B76" d="M 192.203125 127.203125 C 191.523438 127.203125 190.863281 127.070312 190.242188 126.777344 C 181.632812 122.820312 175.199219 117.871094 171.121094 112.050781 C 166.671875 105.726562 165.058594 98.582031 166.363281 90.84375 C 167.546875 83.722656 171.238281 76.210938 177.300781 68.488281 C 180.878906 63.964844 183.597656 59.003906 185.421875 53.761719 C 187.132812 48.851562 187.503906 45.902344 187.503906 44.292969 C 187.503906 44.273438 187.503906 44.273438 187.503906 44.253906 C 187.503906 41.671875 189.617188 39.578125 192.203125 39.578125 C 194.808594 39.578125 196.902344 41.671875 196.902344 44.273438 C 196.902344 44.292969 196.902344 44.292969 196.902344 44.3125 C 196.902344 46.46875 197.527344 49.453125 198.671875 52.949219 C 200.5 58.496094 203.355469 63.734375 207.105469 68.507812 C 216.644531 80.636719 220.21875 92.046875 217.710938 102.40625 C 216.46875 107.566406 213.710938 112.324219 209.515625 116.535156 C 205.609375 120.453125 200.441406 123.90625 194.164062 126.796875 C 193.542969 127.050781 192.882812 127.203125 192.203125 127.203125 Z M 192.203125 62.070312 C 190.222656 66.375 187.714844 70.46875 184.703125 74.289062 C 179.613281 80.753906 176.5625 86.847656 175.648438 92.375 C 174.753906 97.671875 175.804688 102.351562 178.835938 106.65625 C 181.671875 110.671875 186.160156 114.242188 192.222656 117.3125 C 203.683594 111.546875 207.472656 104.871094 208.601562 100.195312 C 210.386719 92.761719 207.414062 84.050781 199.742188 74.289062 C 196.710938 70.449219 194.183594 66.355469 192.203125 62.070312" fill-rule="evenodd"/></g><path fill="#7D9B76" d="M 192.203125 187.238281 C 189.597656 187.238281 187.503906 185.144531 187.503906 182.546875 C 187.503906 173.367188 183.324219 164.882812 174.734375 156.660156 C 168.148438 150.355469 159.09375 144.375 147.066406 138.34375 C 144.757812 137.179688 143.804688 134.363281 144.96875 132.035156 C 146.136719 129.726562 148.953125 128.777344 151.285156 129.941406 C 164.1875 136.382812 173.976562 142.902344 181.242188 149.867188 C 191.640625 159.820312 196.902344 170.804688 196.902344 182.527344 C 196.902344 185.125 194.808594 187.238281 192.203125 187.238281" fill-rule="evenodd"/><path fill="#7D9B76" d="M 155.96875 162.773438 C 153.847656 162.773438 151.808594 162.519531 149.789062 161.996094 C 141.492188 159.804688 134.554688 153.070312 126.625 139.488281 C 126.550781 139.371094 126.242188 138.808594 125.890625 138.1875 C 125.5625 137.605469 125.054688 136.730469 124.976562 136.574219 C 124.765625 136.226562 124.546875 135.800781 124.257812 135.277344 C 122.589844 132.113281 118.660156 124.683594 109.742188 118.628906 C 108.265625 117.640625 107.46875 115.894531 107.703125 114.144531 C 107.9375 112.378906 109.140625 110.90625 110.8125 110.324219 C 127.054688 104.660156 149.941406 102.601562 165.429688 113.777344 C 170.675781 117.558594 174.699219 122.605469 177.398438 128.777344 C 180.273438 135.335938 181.652344 143.234375 181.496094 152.238281 C 181.457031 154.078125 180.371094 155.730469 178.679688 156.464844 C 169.859375 160.285156 162.609375 162.773438 155.96875 162.773438 Z M 122.273438 116.804688 C 128.183594 122.585938 131.191406 128.308594 132.550781 130.871094 C 132.75 131.242188 132.941406 131.609375 133.039062 131.765625 C 133.136719 131.9375 133.429688 132.445312 134.046875 133.511719 C 134.378906 134.074219 134.671875 134.597656 134.75 134.714844 C 143.066406 148.917969 148.445312 151.886719 152.214844 152.875 C 157.382812 154.253906 163.757812 152.484375 172.113281 149.015625 C 171.761719 136.226562 167.664062 126.933594 159.929688 121.34375 C 154.433594 117.367188 146.851562 115.195312 138.050781 115.078125 C 133.019531 115.039062 127.621094 115.621094 122.273438 116.804688 Z M 122.273438 116.804688" fill-rule="evenodd"/></svg>