<svg xmlns="http://www.w3.org/2000/svg" width="375" viewBox="0 0 375 375" height="375" version="1.0"><defs><clipPath id="a"><path d="M 88.660156 73 L 286.660156 73 L 286.660156 342.371094 L 88.660156 342.371094 Z M 88.660156 73"/></clipPath><clipPath id="b"><path d="M 163 32.621094 L 212 32.621094 L 212 57 L 163 57 Z M 163 32.621094"/></clipPath></defs><g clip-path="url(#a)"><path fill="#7D9B76" d="M 274.597656 73.964844 L 254.34375 73.964844 L 254.34375 82.988281 L 274.597656 82.988281 C 276.070312 82.988281 277.308594 84.226562 277.308594 85.695312 L 277.308594 330.644531 C 277.308594 332.109375 276.070312 333.347656 274.597656 333.347656 L 100.726562 333.347656 C 99.253906 333.347656 98.015625 332.109375 98.015625 330.644531 L 98.015625 85.695312 C 98.015625 84.226562 99.253906 82.988281 100.726562 82.988281 L 122.0625 82.988281 L 122.0625 73.964844 L 100.726562 73.964844 C 94.25 73.964844 88.976562 79.222656 88.976562 85.695312 L 88.976562 330.644531 C 88.976562 337.109375 94.25 342.371094 100.726562 342.371094 L 274.597656 342.371094 C 281.074219 342.371094 286.347656 337.109375 286.347656 330.644531 L 286.347656 85.695312 C 286.347656 79.222656 281.074219 73.964844 274.597656 73.964844 Z M 274.597656 73.964844"/></g><path fill="#7D9B76" d="M 131.101562 63.859375 C 131.101562 62.394531 132.339844 61.152344 133.8125 61.152344 L 242.589844 61.152344 C 244.0625 61.152344 245.300781 62.394531 245.300781 63.859375 L 245.300781 73.960938 L 254.339844 73.960938 L 254.339844 63.859375 C 254.339844 57.394531 249.066406 52.132812 242.589844 52.132812 L 133.8125 52.132812 C 127.335938 52.132812 122.0625 57.394531 122.0625 63.859375 L 122.0625 73.960938 L 131.101562 73.960938 Z M 131.101562 63.859375"/><path fill="#7D9B76" d="M 245.308594 95.941406 C 245.308594 97.410156 244.066406 98.648438 242.597656 98.648438 L 133.8125 98.648438 C 132.339844 98.648438 131.101562 97.410156 131.101562 95.941406 L 131.101562 82.988281 L 122.0625 82.988281 L 122.0625 95.941406 C 122.0625 102.40625 127.335938 107.671875 133.8125 107.671875 L 242.589844 107.671875 C 249.066406 107.671875 254.339844 102.40625 254.339844 95.941406 L 254.339844 82.988281 L 245.300781 82.988281 L 245.300781 95.941406 Z M 245.308594 95.941406"/><path fill="#7D9B76" d="M 122.0625 73.964844 L 131.101562 73.964844 L 131.101562 82.988281 L 122.0625 82.988281 Z M 122.0625 73.964844"/><path fill="#7D9B76" d="M 245.308594 73.964844 L 254.34375 73.964844 L 254.34375 82.988281 L 245.308594 82.988281 Z M 245.308594 73.964844"/><g clip-path="url(#b)"><path fill="#7D9B76" d="M 211.726562 56.644531 L 202.691406 56.644531 C 202.691406 48.375 195.949219 41.644531 187.664062 41.644531 C 179.382812 41.644531 172.640625 48.375 172.640625 56.644531 L 163.601562 56.644531 C 163.597656 43.398438 174.394531 32.621094 187.660156 32.621094 C 200.929688 32.621094 211.726562 43.398438 211.726562 56.644531 Z M 211.726562 56.644531"/></g><path fill="#7D9B76" d="M 254.210938 160.972656 L 168.117188 160.972656 C 165.621094 160.972656 163.597656 158.949219 163.597656 156.460938 C 163.597656 153.972656 165.621094 151.949219 168.117188 151.949219 L 254.210938 151.949219 C 256.707031 151.949219 258.730469 153.972656 258.730469 156.460938 C 258.730469 158.949219 256.710938 160.972656 254.210938 160.972656 Z M 254.210938 160.972656"/><path fill="#7D9B76" d="M 254.210938 189.789062 L 168.117188 189.789062 C 165.621094 189.789062 163.597656 187.765625 163.597656 185.277344 C 163.597656 182.785156 165.621094 180.765625 168.117188 180.765625 L 254.210938 180.765625 C 256.707031 180.765625 258.730469 182.785156 258.730469 185.277344 C 258.730469 187.765625 256.710938 189.789062 254.210938 189.789062 Z M 254.210938 189.789062"/><path fill="#7D9B76" d="M 254.210938 218.597656 L 168.117188 218.597656 C 165.621094 218.597656 163.597656 216.578125 163.597656 214.085938 C 163.597656 211.597656 165.621094 209.574219 168.117188 209.574219 L 254.210938 209.574219 C 256.707031 209.574219 258.730469 211.597656 258.730469 214.085938 C 258.730469 216.578125 256.710938 218.597656 254.210938 218.597656 Z M 254.210938 218.597656"/><path fill="#7D9B76" d="M 254.210938 247.414062 L 168.117188 247.414062 C 165.621094 247.414062 163.597656 245.390625 163.597656 242.902344 C 163.597656 240.414062 165.621094 238.390625 168.117188 238.390625 L 254.210938 238.390625 C 256.707031 238.390625 258.730469 240.414062 258.730469 242.902344 C 258.730469 245.390625 256.710938 247.414062 254.210938 247.414062 Z M 254.210938 247.414062"/><path fill="#7D9B76" d="M 254.210938 276.230469 L 168.117188 276.230469 C 165.621094 276.230469 163.597656 274.207031 163.597656 271.71875 C 163.597656 269.226562 165.621094 267.207031 168.117188 267.207031 L 254.210938 267.207031 C 256.707031 267.207031 258.730469 269.226562 258.730469 271.71875 C 258.730469 274.207031 256.710938 276.230469 254.210938 276.230469 Z M 254.210938 276.230469"/><path fill="#7D9B76" d="M 121.582031 170.167969 C 120.425781 170.167969 119.269531 169.730469 118.390625 168.84375 L 109.972656 160.441406 C 108.207031 158.679688 108.207031 155.824219 109.972656 154.0625 C 111.738281 152.300781 114.597656 152.300781 116.363281 154.0625 L 121.589844 159.277344 L 136.8125 144.078125 C 138.578125 142.316406 141.4375 142.316406 143.203125 144.078125 C 144.96875 145.839844 144.96875 148.695312 143.203125 150.457031 L 124.78125 168.851562 C 123.894531 169.722656 122.738281 170.167969 121.582031 170.167969 Z M 121.582031 170.167969"/><path fill="#7D9B76" d="M 122.304688 198.976562 C 121.105469 198.976562 119.957031 198.503906 119.113281 197.65625 L 110.695312 189.253906 C 108.929688 187.488281 108.929688 184.632812 110.695312 182.871094 C 112.460938 181.109375 115.324219 181.109375 117.085938 182.871094 L 122.3125 188.085938 L 137.535156 172.886719 C 139.300781 171.125 142.160156 171.125 143.925781 172.886719 C 145.691406 174.648438 145.691406 177.507812 143.925781 179.269531 L 125.503906 197.660156 C 124.65625 198.503906 123.503906 198.976562 122.304688 198.976562 Z M 122.304688 198.976562"/></svg>