<svg xmlns="http://www.w3.org/2000/svg" width="375" viewBox="0 0 375 375" height="375" version="1.0"><defs><clipPath id="a"><path d="M 261 281 L 318 281 L 318 317.460938 L 261 317.460938 Z M 261 281"/></clipPath><clipPath id="b"><path d="M 57 281 L 115 281 L 115 317.460938 L 57 317.460938 Z M 57 281"/></clipPath><clipPath id="c"><path d="M 115 57.210938 L 252 57.210938 L 252 125 L 115 125 Z M 115 57.210938"/></clipPath></defs><path fill="#7D9B76" d="M 313.488281 199.328125 C 311.867188 199.328125 310.554688 198.015625 310.554688 196.386719 L 310.554688 135.257812 C 310.554688 129.28125 305.679688 124.425781 299.707031 124.425781 L 75.34375 124.425781 C 69.359375 124.425781 64.496094 129.28125 64.496094 135.257812 L 64.496094 196.386719 C 64.496094 198.015625 63.171875 199.328125 61.550781 199.328125 C 59.929688 199.328125 58.617188 198.015625 58.617188 196.386719 L 58.617188 135.257812 C 58.617188 126.042969 66.117188 118.550781 75.34375 118.550781 L 299.707031 118.550781 C 308.921875 118.550781 316.433594 126.042969 316.433594 135.257812 L 316.433594 196.386719 C 316.433594 198.015625 315.113281 199.328125 313.488281 199.328125"/><path fill="#7D9B76" d="M 238 241.414062 L 136.589844 241.414062 C 134.96875 241.414062 133.644531 240.09375 133.644531 238.472656 C 133.644531 236.855469 134.96875 235.542969 136.589844 235.542969 L 238 235.542969 C 239.621094 235.542969 240.9375 236.855469 240.9375 238.472656 C 240.9375 240.09375 239.621094 241.414062 238 241.414062"/><path fill="#7D9B76" d="M 268.613281 237.070312 C 266.980469 237.070312 265.667969 235.757812 265.667969 234.128906 L 265.667969 190.738281 C 265.667969 185.75 269.742188 181.679688 274.738281 181.679688 C 279.746094 181.679688 283.820312 185.75 283.820312 190.738281 L 283.820312 224.097656 C 283.820312 225.726562 282.496094 227.039062 280.875 227.039062 C 279.253906 227.039062 277.929688 225.726562 277.929688 224.097656 L 277.929688 190.738281 C 277.929688 188.988281 276.503906 187.550781 274.738281 187.550781 C 272.984375 187.550781 271.546875 188.988281 271.546875 190.738281 L 271.546875 234.128906 C 271.546875 235.757812 270.234375 237.070312 268.613281 237.070312"/><path fill="#7D9B76" d="M 293.148438 227.039062 C 291.527344 227.039062 290.203125 225.726562 290.203125 224.097656 L 290.203125 214.605469 C 290.203125 212.84375 288.769531 211.410156 287.011719 211.410156 C 285.390625 211.410156 284.066406 210.097656 284.066406 208.476562 C 284.066406 206.859375 285.390625 205.535156 287.011719 205.535156 C 292.019531 205.535156 296.085938 209.605469 296.085938 214.605469 L 296.085938 224.097656 C 296.085938 225.726562 294.773438 227.039062 293.148438 227.039062"/><path fill="#7D9B76" d="M 305.414062 227.039062 C 303.792969 227.039062 302.480469 225.726562 302.480469 224.097656 L 302.480469 218.664062 C 302.480469 216.902344 301.042969 215.46875 299.277344 215.46875 C 297.65625 215.46875 296.34375 214.15625 296.34375 212.535156 C 296.34375 210.90625 297.65625 209.59375 299.277344 209.59375 C 304.285156 209.59375 308.359375 213.664062 308.359375 218.664062 L 308.359375 224.097656 C 308.359375 225.726562 307.035156 227.039062 305.414062 227.039062"/><path fill="#7D9B76" d="M 307.722656 287.410156 C 306.132812 287.410156 304.820312 286.128906 304.789062 284.527344 C 304.582031 275.078125 305.167969 271.554688 305.546875 270.285156 C 305.691406 269.585938 306.265625 266.972656 307.300781 263.746094 C 310.75 253.035156 312.660156 241.816406 312.957031 230.398438 L 312.996094 225.273438 C 312.996094 223.542969 311.5625 222.109375 309.804688 222.109375 C 308.183594 222.109375 306.859375 220.796875 306.859375 219.175781 C 306.859375 217.546875 308.183594 216.234375 309.804688 216.234375 C 314.804688 216.234375 318.878906 220.304688 318.878906 225.296875 L 318.835938 230.5 C 318.519531 242.53125 316.527344 254.308594 312.90625 265.550781 C 311.816406 268.921875 311.292969 271.574219 311.285156 271.59375 C 311.242188 271.800781 311.179688 271.996094 311.109375 272.179688 C 311.121094 272.179688 310.453125 274.691406 310.667969 284.40625 C 310.699219 286.023438 309.414062 287.367188 307.792969 287.398438 C 307.773438 287.410156 307.753906 287.410156 307.722656 287.410156"/><path fill="#7D9B76" d="M 270.882812 287.410156 C 269.257812 287.410156 267.945312 286.085938 267.945312 284.46875 C 267.945312 278.480469 262.773438 273.265625 262.722656 273.203125 C 262.660156 273.144531 262.589844 273.070312 262.527344 273 C 260.332031 270.335938 257.992188 267.210938 255.570312 263.703125 C 252.058594 258.621094 250.582031 252.402344 251.402344 246.210938 C 252.480469 238.042969 250.777344 231.679688 249.15625 227.785156 C 248.066406 225.160156 247.8125 222.414062 248.417969 219.84375 C 248.480469 219.578125 248.550781 219.332031 248.621094 219.09375 C 249.515625 216.113281 252.347656 212.925781 257.589844 212.925781 C 259.210938 212.925781 260.527344 214.238281 260.527344 215.855469 C 260.527344 217.484375 259.210938 218.796875 257.589844 218.796875 C 255.210938 218.796875 254.472656 220.046875 254.246094 220.796875 C 254.214844 220.917969 254.175781 221.050781 254.144531 221.195312 C 253.824219 222.546875 253.980469 224.054688 254.59375 225.53125 C 256.484375 230.089844 258.484375 237.519531 257.230469 246.980469 C 256.605469 251.726562 257.734375 256.488281 260.414062 260.375 C 262.703125 263.695312 264.917969 266.644531 266.980469 269.15625 C 267.9375 270.140625 273.828125 276.515625 273.828125 284.46875 C 273.828125 286.085938 272.503906 287.410156 270.882812 287.410156"/><path fill="#7D9B76" d="M 309.804688 222.109375 L 305.414062 222.109375 C 303.792969 222.109375 302.480469 220.796875 302.480469 219.175781 C 302.480469 217.546875 303.792969 216.234375 305.414062 216.234375 L 309.804688 216.234375 C 311.425781 216.234375 312.742188 217.546875 312.742188 219.175781 C 312.742188 220.796875 311.425781 222.109375 309.804688 222.109375"/><path fill="#7D9B76" d="M 299.277344 215.46875 L 292.78125 215.46875 C 291.160156 215.46875 289.835938 214.15625 289.835938 212.535156 C 289.835938 210.90625 291.160156 209.59375 292.78125 209.59375 L 299.277344 209.59375 C 300.910156 209.59375 302.222656 210.90625 302.222656 212.535156 C 302.222656 214.15625 300.910156 215.46875 299.277344 215.46875"/><path fill="#7D9B76" d="M 287.011719 211.410156 L 280.875 211.410156 C 279.253906 211.410156 277.929688 210.097656 277.929688 208.476562 C 277.929688 206.859375 279.253906 205.535156 280.875 205.535156 L 287.011719 205.535156 C 288.636719 205.535156 289.949219 206.859375 289.949219 208.476562 C 289.949219 210.097656 288.636719 211.410156 287.011719 211.410156"/><g clip-path="url(#a)"><path fill="#7D9B76" d="M 314.679688 317.507812 C 313.046875 317.507812 311.734375 316.195312 311.734375 314.574219 L 311.734375 287.929688 C 311.734375 287.644531 311.5 287.410156 311.203125 287.410156 L 267.433594 287.410156 C 267.136719 287.410156 266.898438 287.644531 266.898438 287.929688 L 266.898438 314.574219 C 266.898438 316.195312 265.585938 317.507812 263.964844 317.507812 C 262.332031 317.507812 261.019531 316.195312 261.019531 314.574219 L 261.019531 287.929688 C 261.019531 284.40625 263.902344 281.535156 267.433594 281.535156 L 311.203125 281.535156 C 314.730469 281.535156 317.617188 284.40625 317.617188 287.929688 L 317.617188 314.574219 C 317.617188 316.195312 316.300781 317.507812 314.679688 317.507812"/></g><path fill="#7D9B76" d="M 106.4375 237.070312 C 104.804688 237.070312 103.492188 235.757812 103.492188 234.128906 L 103.492188 190.738281 C 103.492188 188.988281 102.066406 187.550781 100.300781 187.550781 C 98.535156 187.550781 97.109375 188.988281 97.109375 190.738281 L 97.109375 224.097656 C 97.109375 225.726562 95.785156 227.039062 94.164062 227.039062 C 92.542969 227.039062 91.230469 225.726562 91.230469 224.097656 L 91.230469 190.738281 C 91.230469 185.75 95.292969 181.679688 100.300781 181.679688 C 105.308594 181.679688 109.375 185.75 109.375 190.738281 L 109.375 234.128906 C 109.375 235.757812 108.058594 237.070312 106.4375 237.070312"/><path fill="#7D9B76" d="M 81.890625 227.039062 C 80.269531 227.039062 78.957031 225.726562 78.957031 224.097656 L 78.957031 214.605469 C 78.957031 209.605469 83.03125 205.535156 88.027344 205.535156 C 89.648438 205.535156 90.972656 206.859375 90.972656 208.476562 C 90.972656 210.097656 89.648438 211.410156 88.027344 211.410156 C 86.273438 211.410156 84.835938 212.84375 84.835938 214.605469 L 84.835938 224.097656 C 84.835938 225.726562 83.523438 227.039062 81.890625 227.039062"/><path fill="#7D9B76" d="M 69.628906 227.039062 C 68.007812 227.039062 66.683594 225.726562 66.683594 224.097656 L 66.683594 218.664062 C 66.683594 213.664062 70.757812 209.59375 75.765625 209.59375 C 77.386719 209.59375 78.699219 210.90625 78.699219 212.535156 C 78.699219 214.15625 77.386719 215.46875 75.765625 215.46875 C 74 215.46875 72.5625 216.902344 72.5625 218.664062 L 72.5625 224.097656 C 72.5625 225.726562 71.25 227.039062 69.628906 227.039062"/><path fill="#7D9B76" d="M 67.320312 287.410156 C 67.296875 287.410156 67.277344 287.410156 67.257812 287.398438 C 65.625 287.367188 64.34375 286.023438 64.375 284.40625 C 64.589844 274.527344 63.902344 272.097656 63.871094 271.996094 C 63.789062 271.8125 63.796875 271.800781 63.757812 271.59375 C 63.757812 271.574219 63.222656 268.890625 62.144531 265.550781 C 58.511719 254.296875 56.523438 242.523438 56.203125 230.550781 L 56.164062 225.324219 C 56.164062 220.304688 60.238281 216.234375 65.234375 216.234375 C 66.867188 216.234375 68.179688 217.546875 68.179688 219.175781 C 68.179688 220.796875 66.867188 222.109375 65.234375 222.109375 C 63.480469 222.109375 62.042969 223.542969 62.042969 225.296875 L 62.085938 230.449219 C 62.382812 241.816406 64.292969 253.035156 67.738281 263.746094 C 68.777344 266.972656 69.351562 269.585938 69.492188 270.285156 C 69.875 271.554688 70.457031 275.070312 70.253906 284.527344 C 70.222656 286.128906 68.910156 287.410156 67.320312 287.410156"/><path fill="#7D9B76" d="M 104.160156 287.410156 C 102.539062 287.410156 101.214844 286.085938 101.214844 284.46875 C 101.214844 276.515625 107.105469 270.140625 108.058594 269.15625 C 110.121094 266.65625 112.339844 263.695312 114.628906 260.375 C 117.316406 256.488281 118.445312 251.726562 117.808594 246.980469 C 116.558594 237.519531 118.558594 230.089844 120.445312 225.53125 C 121.0625 224.054688 121.214844 222.546875 120.898438 221.175781 C 120.867188 221.050781 120.835938 220.917969 120.796875 220.796875 C 120.570312 220.046875 119.839844 218.796875 117.460938 218.796875 C 115.828125 218.796875 114.515625 217.484375 114.515625 215.855469 C 114.515625 214.238281 115.828125 212.925781 117.460938 212.925781 C 122.695312 212.925781 125.527344 216.113281 126.429688 219.09375 C 126.5 219.332031 126.5625 219.578125 126.625 219.824219 C 127.230469 222.414062 126.972656 225.160156 125.886719 227.785156 C 124.265625 231.679688 122.558594 238.042969 123.636719 246.210938 C 124.457031 252.402344 122.980469 258.621094 119.472656 263.703125 C 117.050781 267.210938 114.710938 270.335938 112.511719 273 C 112.453125 273.070312 112.378906 273.144531 112.308594 273.214844 C 112.265625 273.265625 107.09375 278.480469 107.09375 284.46875 C 107.09375 286.085938 105.78125 287.410156 104.160156 287.410156"/><path fill="#7D9B76" d="M 69.628906 222.109375 L 65.234375 222.109375 C 63.613281 222.109375 62.300781 220.796875 62.300781 219.175781 C 62.300781 217.546875 63.613281 216.234375 65.234375 216.234375 L 69.628906 216.234375 C 71.25 216.234375 72.5625 217.546875 72.5625 219.175781 C 72.5625 220.796875 71.25 222.109375 69.628906 222.109375"/><path fill="#7D9B76" d="M 82.261719 215.46875 L 75.765625 215.46875 C 74.144531 215.46875 72.820312 214.15625 72.820312 212.535156 C 72.820312 210.90625 74.144531 209.59375 75.765625 209.59375 L 82.261719 209.59375 C 83.882812 209.59375 85.207031 210.90625 85.207031 212.535156 C 85.207031 214.15625 83.882812 215.46875 82.261719 215.46875"/><path fill="#7D9B76" d="M 94.164062 211.410156 L 88.027344 211.410156 C 86.40625 211.410156 85.09375 210.097656 85.09375 208.476562 C 85.09375 206.859375 86.40625 205.535156 88.027344 205.535156 L 94.164062 205.535156 C 95.785156 205.535156 97.109375 206.859375 97.109375 208.476562 C 97.109375 210.097656 95.785156 211.410156 94.164062 211.410156"/><g clip-path="url(#b)"><path fill="#7D9B76" d="M 111.085938 317.507812 C 109.457031 317.507812 108.140625 316.195312 108.140625 314.574219 L 108.140625 287.929688 C 108.140625 287.644531 107.90625 287.410156 107.609375 287.410156 L 63.839844 287.410156 C 63.550781 287.410156 63.304688 287.644531 63.304688 287.929688 L 63.304688 314.574219 C 63.304688 316.195312 61.992188 317.507812 60.371094 317.507812 C 58.75 317.507812 57.425781 316.195312 57.425781 314.574219 L 57.425781 287.929688 C 57.425781 284.40625 60.308594 281.535156 63.839844 281.535156 L 107.609375 281.535156 C 111.148438 281.535156 114.023438 284.40625 114.023438 287.929688 L 114.023438 314.574219 C 114.023438 316.195312 112.707031 317.507812 111.085938 317.507812"/></g><g clip-path="url(#c)"><path fill="#7D9B76" d="M 187.292969 124.425781 C 185.664062 124.425781 184.347656 123.113281 184.347656 121.492188 C 184.347656 110.84375 193.019531 102.1875 203.683594 102.1875 L 235.300781 102.1875 C 240.976562 102.1875 245.59375 97.574219 245.59375 91.90625 C 245.59375 86.238281 240.976562 81.628906 235.300781 81.628906 L 136.804688 81.628906 C 124.910156 81.628906 115.234375 71.976562 115.234375 60.097656 C 115.234375 58.476562 116.558594 57.167969 118.179688 57.167969 C 119.800781 57.167969 121.113281 58.476562 121.113281 60.097656 C 121.113281 68.738281 128.152344 75.757812 136.804688 75.757812 L 235.300781 75.757812 C 244.21875 75.757812 251.476562 83 251.476562 91.90625 C 251.476562 100.8125 244.21875 108.058594 235.300781 108.058594 L 203.683594 108.058594 C 196.265625 108.058594 190.230469 114.082031 190.230469 121.492188 C 190.230469 123.113281 188.917969 124.425781 187.292969 124.425781"/></g><path fill="#7D9B76" d="M 96.667969 156.992188 C 95.046875 156.992188 93.734375 155.679688 93.734375 154.0625 L 93.734375 142.644531 L 85.238281 142.644531 L 85.238281 154.0625 C 85.238281 155.679688 83.921875 156.992188 82.292969 156.992188 C 80.667969 156.992188 79.355469 155.679688 79.355469 154.0625 L 79.355469 139.703125 C 79.355469 138.085938 80.667969 136.773438 82.292969 136.773438 L 96.667969 136.773438 C 98.289062 136.773438 99.613281 138.085938 99.613281 139.703125 L 99.613281 154.0625 C 99.613281 155.679688 98.289062 156.992188 96.667969 156.992188"/><path fill="#7D9B76" d="M 129.34375 156.992188 C 127.722656 156.992188 126.410156 155.679688 126.410156 154.0625 L 126.410156 142.644531 L 117.910156 142.644531 L 117.910156 154.0625 C 117.910156 155.679688 116.597656 156.992188 114.976562 156.992188 C 113.355469 156.992188 112.03125 155.679688 112.03125 154.0625 L 112.03125 139.703125 C 112.03125 138.085938 113.355469 136.773438 114.976562 136.773438 L 129.34375 136.773438 C 130.976562 136.773438 132.289062 138.085938 132.289062 139.703125 L 132.289062 154.0625 C 132.289062 155.679688 130.976562 156.992188 129.34375 156.992188"/><path fill="#7D9B76" d="M 162.027344 156.992188 C 160.40625 156.992188 159.082031 155.679688 159.082031 154.0625 L 159.082031 142.644531 L 150.597656 142.644531 L 150.597656 154.0625 C 150.597656 155.679688 149.285156 156.992188 147.652344 156.992188 C 146.03125 156.992188 144.714844 155.679688 144.714844 154.0625 L 144.714844 139.703125 C 144.714844 138.085938 146.03125 136.773438 147.652344 136.773438 L 162.027344 136.773438 C 163.652344 136.773438 164.964844 138.085938 164.964844 139.703125 L 164.964844 154.0625 C 164.964844 155.679688 163.652344 156.992188 162.027344 156.992188"/><path fill="#7D9B76" d="M 194.703125 156.992188 C 193.082031 156.992188 191.769531 155.679688 191.769531 154.0625 L 191.769531 142.644531 L 183.273438 142.644531 L 183.273438 154.0625 C 183.273438 155.679688 181.957031 156.992188 180.335938 156.992188 C 178.714844 156.992188 177.390625 155.679688 177.390625 154.0625 L 177.390625 139.703125 C 177.390625 138.085938 178.714844 136.773438 180.335938 136.773438 L 194.703125 136.773438 C 196.335938 136.773438 197.648438 138.085938 197.648438 139.703125 L 197.648438 154.0625 C 197.648438 155.679688 196.335938 156.992188 194.703125 156.992188"/><path fill="#7D9B76" d="M 227.390625 156.992188 C 225.769531 156.992188 224.445312 155.679688 224.445312 154.0625 L 224.445312 142.644531 L 215.957031 142.644531 L 215.957031 154.0625 C 215.957031 155.679688 214.632812 156.992188 213.011719 156.992188 C 211.390625 156.992188 210.078125 155.679688 210.078125 154.0625 L 210.078125 139.703125 C 210.078125 138.085938 211.390625 136.773438 213.011719 136.773438 L 227.390625 136.773438 C 229.011719 136.773438 230.324219 138.085938 230.324219 139.703125 L 230.324219 154.0625 C 230.324219 155.679688 229.011719 156.992188 227.390625 156.992188"/><path fill="#7D9B76" d="M 260.066406 156.992188 C 258.441406 156.992188 257.128906 155.679688 257.128906 154.0625 L 257.128906 142.644531 L 248.632812 142.644531 L 248.632812 154.0625 C 248.632812 155.679688 247.320312 156.992188 245.699219 156.992188 C 244.074219 156.992188 242.753906 155.679688 242.753906 154.0625 L 242.753906 139.703125 C 242.753906 138.085938 244.074219 136.773438 245.699219 136.773438 L 260.066406 136.773438 C 261.695312 136.773438 263.011719 138.085938 263.011719 139.703125 L 263.011719 154.0625 C 263.011719 155.679688 261.695312 156.992188 260.066406 156.992188"/><path fill="#7D9B76" d="M 292.75 156.992188 C 291.128906 156.992188 289.804688 155.679688 289.804688 154.0625 L 289.804688 142.644531 L 281.316406 142.644531 L 281.316406 154.0625 C 281.316406 155.679688 279.992188 156.992188 278.371094 156.992188 C 276.75 156.992188 275.4375 155.679688 275.4375 154.0625 L 275.4375 139.703125 C 275.4375 138.085938 276.75 136.773438 278.371094 136.773438 L 292.75 136.773438 C 294.371094 136.773438 295.683594 138.085938 295.683594 139.703125 L 295.683594 154.0625 C 295.683594 155.679688 294.371094 156.992188 292.75 156.992188"/><path fill="#7D9B76" d="M 162.027344 190.265625 C 160.40625 190.265625 159.082031 188.957031 159.082031 187.335938 L 159.082031 175.921875 L 150.597656 175.921875 L 150.597656 187.335938 C 150.597656 188.957031 149.285156 190.265625 147.652344 190.265625 C 146.03125 190.265625 144.714844 188.957031 144.714844 187.335938 L 144.714844 172.980469 C 144.714844 171.359375 146.03125 170.046875 147.652344 170.046875 L 162.027344 170.046875 C 163.652344 170.046875 164.964844 171.359375 164.964844 172.980469 L 164.964844 187.335938 C 164.964844 188.957031 163.652344 190.265625 162.027344 190.265625"/><path fill="#7D9B76" d="M 194.703125 190.265625 C 193.082031 190.265625 191.769531 188.957031 191.769531 187.335938 L 191.769531 175.921875 L 183.273438 175.921875 L 183.273438 187.335938 C 183.273438 188.957031 181.957031 190.265625 180.335938 190.265625 C 178.714844 190.265625 177.390625 188.957031 177.390625 187.335938 L 177.390625 172.980469 C 177.390625 171.359375 178.714844 170.046875 180.335938 170.046875 L 194.703125 170.046875 C 196.335938 170.046875 197.648438 171.359375 197.648438 172.980469 L 197.648438 187.335938 C 197.648438 188.957031 196.335938 190.265625 194.703125 190.265625"/><path fill="#7D9B76" d="M 227.390625 190.265625 C 225.769531 190.265625 224.445312 188.957031 224.445312 187.335938 L 224.445312 175.921875 L 215.957031 175.921875 L 215.957031 187.335938 C 215.957031 188.957031 214.632812 190.265625 213.011719 190.265625 C 211.390625 190.265625 210.078125 188.957031 210.078125 187.335938 L 210.078125 172.980469 C 210.078125 171.359375 211.390625 170.046875 213.011719 170.046875 L 227.390625 170.046875 C 229.011719 170.046875 230.324219 171.359375 230.324219 172.980469 L 230.324219 187.335938 C 230.324219 188.957031 229.011719 190.265625 227.390625 190.265625"/></svg>